<?xml version="1.0" encoding="utf-8"?>
<!-- Generator: Adobe Illustrator 23.0.2, SVG Export Plug-In . SVG Version: 6.00 Build 0)  -->
<svg version="1.1" id="Layer_1" xmlns="http://www.w3.org/2000/svg" xmlns:xlink="http://www.w3.org/1999/xlink" x="0px" y="0px"
	 viewBox="0 0 3000 2000" style="enable-background:new 0 0 3000 2000;" xml:space="preserve">
<style type="text/css">
	.st0{fill:#F6F9FF;}
	.st1{opacity:0.15;clip-path:url(#XMLID_2_);fill:#8C9EF4;}
	.st2{fill:#1B3D9E;}
	.st3{opacity:0.34;clip-path:url(#XMLID_3_);fill:#F6F9FF;}
	.st4{fill:#1C056D;}
	.st5{fill:#8C9EF4;}
	.st6{fill:#D4DFFF;}
	.st7{opacity:0.15;clip-path:url(#XMLID_4_);fill:#1B3D9E;}
	.st8{fill:#FFFFFF;}
	.st9{clip-path:url(#XMLID_5_);fill:#1C056D;}
	.st10{clip-path:url(#XMLID_6_);fill:#E57492;}
	.st11{clip-path:url(#XMLID_7_);fill:#D40221;}
	.st12{clip-path:url(#XMLID_8_);fill:#E57492;}
	.st13{fill:#E57492;}
	.st14{fill:#D40221;}
	.st15{clip-path:url(#XMLID_9_);fill:#1C056D;}
	.st16{clip-path:url(#XMLID_10_);fill:#E57492;}
	.st17{opacity:0.43;clip-path:url(#XMLID_11_);fill:#8C9EF4;}
	.st18{fill:#EAF2FC;}
	.st19{fill:#FE8E9C;}
	.st20{fill:#F9C438;}
	.st21{fill:#F6AB36;}
	.st22{opacity:0.5;fill:#8C9EF4;}
	.st23{fill:#A3B1F6;}
	.st24{fill:#BAC5F8;}
	.st25{fill:#6880E4;}
	.st26{clip-path:url(#XMLID_12_);fill:#BAC5F8;}
</style>
<path class="st0" d="M1299.78,674.04c-79.07,46.79-174.04,59.88-265.88,57.15c-103.14-3.06-156.45-52.01-183.62-149.44
	c-8.85-31.74-16.5-65.07-10.18-97.41c7.49-38.31,34.1-70.73,65.84-93.45c114.14-81.71,277.93-97.42,411.63-65.9
	c41.63,9.81,93.26,27.63,115.74,66.88c9.75,17.02,12.96,37.15,12.49,56.76C1443.7,537.74,1374.35,629.92,1299.78,674.04z"/>
<g>
	<defs>
		<path id="XMLID_474_" d="M380.05,1812.9h2264.77c62.81-117.61,109.93-252.38,120.48-385.29c5.14-64.77,3.34-132.12-23.11-191.47
			c-52.32-117.39-189.88-181.18-236.33-301.01c-29.98-77.32-16.37-164.13-29.02-246.09c-19.07-123.51-100.07-233.38-206.46-298.97
			c-106.38-65.59-235.79-88.9-360.23-77.4c-49.06,4.53-98.24,14.46-142.41,36.29c-71.99,35.58-125.16,99.65-174.19,163.25
			c-60.8,78.86-121.23,162.14-207.2,212.4c-94.57,55.28-209.16,63.9-318.59,59.09c-109.43-4.81-218.94-21.64-328.04-11.9
			c-109.1,9.74-221.68,50.75-287.36,138.41c-93.88,125.29-65.61,302.01-17.51,451c21.99,68.12,47.54,139.73,31.87,209.58
			C447.36,1657.07,369.95,1725.05,380.05,1812.9z"/>
	</defs>
	<use xlink:href="#XMLID_474_"  style="overflow:visible;fill:#F6F9FF;"/>
	<clipPath id="XMLID_2_">
		<use xlink:href="#XMLID_474_"  style="overflow:visible;"/>
	</clipPath>
	<path class="st1" d="M279.8,1161.47c92.6-128.29,263.37-182.11,421.13-170.06c157.76,12.04,305.5,80.28,444.51,155.84
		c139.01,75.56,274.71,160.16,424.92,209.85c150.21,49.69,320.72,61.2,462.57-8.9c116.53-57.59,201.94-163.49,312.41-232
		c120.37-74.64,264.57-101.18,405.95-109.66c22.05,35.1,30.45,78.17,35.54,119.31c28.83,233.4,30.38,470.16,4.6,703.91H322.18
		C310.52,1610.45,281.25,1381.08,279.8,1161.47z"/>
</g>
<g>
	<g>
		<path class="st2" d="M2039.46,1812.9h-743.87c-27.66,0-50.08-22.42-50.08-50.08V538.08c0-27.66,22.42-50.08,50.08-50.08h743.87
			c27.66,0,50.08,22.42,50.08,50.08v1224.74C2089.54,1790.48,2067.12,1812.9,2039.46,1812.9z"/>
		<g>
			<defs>
				<path id="XMLID_473_" d="M2009.64,1690.03h-683.37c-15.47,0-28-12.54-28-28V579.55c0-15.47,12.54-28,28-28h683.37
					c15.47,0,28,12.54,28,28v1082.48C2037.64,1677.49,2025.11,1690.03,2009.64,1690.03z"/>
			</defs>
			<use xlink:href="#XMLID_473_"  style="overflow:visible;fill:#D4DFFF;"/>
			<clipPath id="XMLID_3_">
				<use xlink:href="#XMLID_473_"  style="overflow:visible;"/>
			</clipPath>
			<polygon class="st3" points="1532.82,528.65 1245.51,909.8 1245.51,1275.94 1667.53,888.77 1262,1495.76 1262,1756.78 
				1705.56,1756.78 1958.01,1280.94 1817.01,1729.44 2037.64,1729.44 2089.54,1675.84 2108.95,925.49 1816.31,1246.17 2070,741.94 
				2056.43,521.34 			"/>
		</g>
		<path class="st4" d="M1729.55,1774.67h-123.17c-12.32,0-22.31-9.99-22.31-22.31v-14.62c0-12.32,9.99-22.31,22.31-22.31h123.17
			c12.32,0,22.31,9.99,22.31,22.31v14.62C1751.85,1764.68,1741.87,1774.67,1729.55,1774.67z"/>
	</g>
	<g>
		<rect x="1421.1" y="1168.84" class="st5" width="23.11" height="77.33"/>
		<rect x="1460.62" y="1168.84" class="st5" width="23.11" height="77.33"/>
		<rect x="1500.14" y="1168.84" class="st5" width="23.11" height="77.33"/>
		<rect x="1533.89" y="1168.84" class="st5" width="11.55" height="77.33"/>
		<rect x="1556.54" y="1168.84" class="st5" width="11.55" height="77.33"/>
		<rect x="1579.19" y="1168.84" class="st5" width="23.11" height="77.33"/>
		<rect x="1618.71" y="1168.84" class="st5" width="23.11" height="77.33"/>
		<rect x="1658.23" y="1168.84" class="st5" width="23.11" height="77.33"/>
		<rect x="1713.41" y="1168.84" class="st5" width="11.55" height="77.33"/>
		<rect x="1691.59" y="1168.84" class="st5" width="11.55" height="77.33"/>
		<rect x="1737.27" y="1168.84" class="st5" width="23.11" height="77.33"/>
		<rect x="1776.79" y="1168.84" class="st5" width="23.11" height="77.33"/>
		<rect x="1816.31" y="1168.84" class="st5" width="23.11" height="77.33"/>
		<rect x="1855.84" y="1168.84" class="st5" width="7.73" height="77.33"/>
		<rect x="1875.6" y="1168.84" class="st5" width="7.73" height="77.33"/>
		<rect x="1895.36" y="1168.84" class="st5" width="23.11" height="77.33"/>
	</g>
	<g>
		<path class="st0" d="M1901.93,1108.34h-468.8c-9.13,0-16.54-7.4-16.54-16.54V685.74c0-9.13,7.4-16.54,16.54-16.54h468.8
			c9.13,0,16.54,7.4,16.54,16.54v406.06C1918.46,1100.94,1911.06,1108.34,1901.93,1108.34z"/>
		<g>
			<rect x="1443.23" y="699.04" class="st5" width="101.24" height="101.24"/>
			<rect x="1443.23" y="868.02" class="st5" width="215.01" height="215.01"/>
			<rect x="1489.43" y="909.8" class="st6" width="122.61" height="122.61"/>
			<rect x="1789.9" y="981.79" class="st5" width="101.24" height="101.24"/>
			<rect x="1789.9" y="699.04" class="st5" width="101.24" height="101.24"/>
			<rect x="1685.68" y="699.04" class="st5" width="35.92" height="35.92"/>
			<rect x="1443.23" y="814.22" class="st5" width="35.92" height="35.92"/>
			<rect x="1496.9" y="814.22" class="st5" width="35.92" height="35.92"/>
			<rect x="1550.56" y="814.22" class="st5" width="35.92" height="35.92"/>
			<rect x="1604.22" y="814.22" class="st5" width="35.92" height="35.92"/>
			<rect x="1721.6" y="776.46" class="st5" width="23.83" height="23.83"/>
			<rect x="1667.53" y="757.25" class="st5" width="23.83" height="23.83"/>
			<rect x="1782.65" y="866.04" class="st5" width="23.83" height="23.83"/>
			<rect x="1693.65" y="826.32" class="st5" width="23.83" height="23.83"/>
			<rect x="1728.52" y="866.04" class="st5" width="23.83" height="23.83"/>
			<rect x="1793.18" y="944.32" class="st5" width="23.83" height="23.83"/>
			<rect x="1830.25" y="944.32" class="st5" width="23.83" height="23.83"/>
			<rect x="1867.31" y="944.32" class="st5" width="23.83" height="23.83"/>
			<rect x="1588.45" y="741.94" class="st5" width="58.34" height="58.34"/>
			<rect x="1701.15" y="909.8" class="st5" width="58.34" height="58.34"/>
			<rect x="1671.97" y="1056.31" class="st5" width="26.73" height="26.73"/>
			<rect x="1715.01" y="1024.46" class="st5" width="58.58" height="58.58"/>
			<rect x="1847.46" y="868.02" class="st5" width="43.68" height="43.68"/>
			<rect x="1782.65" y="817.37" class="st5" width="28.95" height="28.95"/>
			<rect x="1822.42" y="817.37" class="st5" width="28.95" height="28.95"/>
			<rect x="1862.19" y="817.37" class="st5" width="28.95" height="28.95"/>
			<rect x="1812.72" y="1004.62" class="st6" width="55.59" height="55.59"/>
			<rect x="1466.06" y="721.87" class="st6" width="55.59" height="55.59"/>
			<rect x="1812.72" y="721.87" class="st6" width="55.59" height="55.59"/>
		</g>
	</g>
	<g>
		<g>
			<defs>
				<path id="XMLID_472_" d="M1862.79,1514.44h-390.53c-12.81,0-23.19-10.38-23.19-23.19v-112.39c0-12.81,10.38-23.19,23.19-23.19
					h390.53c12.81,0,23.19,10.38,23.19,23.19v112.39C1885.98,1504.06,1875.6,1514.44,1862.79,1514.44z"/>
			</defs>
			<use xlink:href="#XMLID_472_"  style="overflow:visible;fill:#8C9EF4;"/>
			<clipPath id="XMLID_4_">
				<use xlink:href="#XMLID_472_"  style="overflow:visible;"/>
			</clipPath>
			<path class="st7" d="M1881.14,1533.96h-396.23c-10.61,0-19.2-8.6-19.2-19.2v-128.54c0-10.61,8.6-19.2,19.2-19.2h396.23
				c10.61,0,19.2,8.6,19.2,19.2v128.54C1900.35,1525.36,1891.75,1533.96,1881.14,1533.96z"/>
		</g>
		<g>
			<path class="st8" d="M1581.17,1414.81c0.41,1.4,0.27,2.55-0.43,3.45c-0.7,0.9-1.65,1.51-2.87,1.82c-1.21,0.31-2.54,0.3-3.99-0.04
				c-1.45-0.34-2.69-1.02-3.72-2.05c-0.1-1.6-0.49-3.24-1.16-4.92c-0.67-1.68-1.58-3.19-2.71-4.53c-1.14-1.34-2.48-2.45-4.03-3.33
				c-1.55-0.88-3.2-1.29-4.96-1.24c-2.43,0.1-4.6,0.74-6.51,1.9c-1.91,1.16-3.41,2.69-4.49,4.57c-1.08,1.89-1.7,4.02-1.86,6.39
				c-0.16,2.38,0.34,4.8,1.47,7.28c0.41,0.98,1.54,1.73,3.37,2.25c1.83,0.52,4.02,1.07,6.55,1.67c2.53,0.59,5.24,1.33,8.14,2.21
				c2.89,0.88,5.64,2.17,8.25,3.87c2.61,1.71,4.88,3.94,6.82,6.7c1.94,2.76,3.24,6.31,3.91,10.65c0.52,3.67,0.17,6.9-1.05,9.69
				c-1.21,2.79-3.01,5.15-5.39,7.09c-2.38,1.94-5.17,3.44-8.37,4.49c-3.2,1.06-6.54,1.65-10,1.78c-3.46,0.13-6.87-0.21-10.23-1.01
				c-3.36-0.8-6.37-2.08-9.03-3.84c-2.66-1.76-4.82-4.02-6.47-6.78c-1.65-2.76-2.51-6.03-2.56-9.8c0-1.03,0.05-2.03,0.16-2.98
				c0.1-0.96,0.34-1.82,0.7-2.6c0.36-0.77,0.88-1.43,1.55-1.98c0.67-0.54,1.57-0.89,2.71-1.05c1.03-0.05,1.91,0.13,2.63,0.54
				c0.72,0.41,1.3,0.97,1.74,1.67c0.44,0.7,0.72,1.52,0.85,2.48c0.13,0.96,0.14,1.98,0.04,3.06c-0.26,2.27,0.06,4.22,0.97,5.85
				c0.9,1.63,2.13,2.97,3.68,4.03c1.55,1.06,3.31,1.83,5.27,2.32c1.96,0.49,3.87,0.69,5.73,0.58c1.86-0.1,3.74-0.37,5.66-0.81
				c1.91-0.44,3.64-1.14,5.19-2.09c1.55-0.96,2.79-2.21,3.72-3.76c0.93-1.55,1.29-3.49,1.08-5.81c-0.1-1.24-0.45-2.53-1.05-3.87
				c-0.59-1.34-1.38-2.6-2.36-3.76c-0.98-1.16-2.09-2.21-3.33-3.14c-1.24-0.93-2.56-1.6-3.95-2.01c-2.07-0.62-4.21-1.21-6.43-1.78
				c-2.22-0.57-4.38-1.21-6.47-1.94c-2.09-0.72-4.07-1.58-5.93-2.56c-1.86-0.98-3.5-2.2-4.92-3.64c-1.42-1.45-2.54-3.19-3.37-5.23
				c-0.83-2.04-1.27-4.48-1.32-7.32c-0.05-3.46,0.58-6.59,1.9-9.38c1.32-2.79,3.06-5.16,5.23-7.13c2.17-1.96,4.6-3.47,7.28-4.53
				c2.69-1.06,5.35-1.59,7.98-1.59c3.61,0,6.92,0.47,9.92,1.4c3,0.93,5.63,2.27,7.9,4.03c2.27,1.76,4.13,3.89,5.58,6.39
				C1579.67,1408.98,1580.66,1411.76,1581.17,1414.81z"/>
			<path class="st8" d="M1649.51,1398.61c-0.21-1.65,0.06-2.98,0.81-3.99c0.75-1.01,1.65-1.63,2.71-1.86
				c1.06-0.23,2.13-0.03,3.22,0.62c1.08,0.65,1.86,1.77,2.32,3.37c0.46,2.69,0.8,5.37,1.01,8.06c0.21,2.69,0.31,5.42,0.31,8.21
				c-0.1,1.7-0.66,3.02-1.67,3.95c-1.01,0.93-2.13,1.46-3.37,1.59c-1.24,0.13-2.4-0.17-3.49-0.89c-1.08-0.72-1.73-1.91-1.94-3.56
				v-0.62c-2.48-3.25-5.31-5.55-8.48-6.9c-3.18-1.34-6.43-1.9-9.76-1.67c-3.33,0.23-6.63,1.16-9.88,2.79
				c-3.25,1.63-6.2,3.76-8.83,6.39c-1.65,1.65-3.01,3.64-4.07,5.97c-1.06,2.32-1.86,4.79-2.4,7.4c-0.54,2.61-0.84,5.27-0.89,7.98
				c-0.05,2.71,0.09,5.32,0.43,7.83c0.34,2.51,0.85,4.82,1.55,6.93c0.7,2.12,1.54,3.85,2.52,5.19c1.5,2.12,3.37,3.87,5.62,5.27
				c2.25,1.39,4.66,2.44,7.24,3.14c2.58,0.7,5.26,1.06,8.02,1.08c2.76,0.03,5.45-0.27,8.06-0.89c2.61-0.62,5.02-1.56,7.24-2.83
				c2.22-1.27,4.11-2.85,5.66-4.77c0.72-0.93,1.24-1.98,1.55-3.14c0.31-1.16,0.7-2.29,1.16-3.37c0.83-1.45,1.74-2.36,2.75-2.75
				c1.01-0.39,1.92-0.36,2.75,0.08c0.83,0.44,1.51,1.25,2.05,2.44c0.54,1.19,0.79,2.63,0.74,4.34c-0.1,3.67-1.34,6.95-3.72,9.84
				c-2.38,2.89-5.44,5.28-9.18,7.17c-3.75,1.89-7.92,3.23-12.51,4.03c-4.6,0.8-9.18,0.93-13.75,0.39c-4.57-0.54-8.87-1.79-12.9-3.76
				c-4.03-1.96-7.34-4.78-9.92-8.45c-1.45-2.07-2.69-4.56-3.72-7.48c-1.03-2.92-1.8-6.07-2.29-9.45c-0.49-3.38-0.71-6.9-0.66-10.54
				c0.05-3.64,0.43-7.21,1.12-10.69c0.7-3.49,1.74-6.78,3.14-9.88c1.39-3.1,3.18-5.81,5.35-8.14c1.7-1.81,3.74-3.49,6.12-5.04
				c2.38-1.55,4.93-2.87,7.67-3.95c2.74-1.09,5.59-1.91,8.56-2.48c2.97-0.57,5.89-0.8,8.76-0.7c2.87,0.1,5.62,0.59,8.25,1.47
				c2.63,0.88,4.98,2.22,7.05,4.03c-0.05-0.31-0.1-0.61-0.16-0.89C1649.62,1399.22,1649.56,1398.92,1649.51,1398.61z"/>
			<path class="st8" d="M1670.43,1469.28c0.93-2.17,1.81-4.89,2.63-8.17c0.83-3.28,1.65-6.88,2.48-10.81
				c0.83-3.92,1.7-8.03,2.63-12.32c0.93-4.29,1.92-8.51,2.98-12.67c1.06-4.16,2.23-8.11,3.53-11.85c1.29-3.74,2.74-7.04,4.34-9.88
				c1.6-2.84,3.38-5.1,5.35-6.78c1.96-1.68,4.16-2.52,6.59-2.52c1.39,0,2.78,0.84,4.15,2.52c1.37,1.68,2.71,3.93,4.03,6.74
				c1.32,2.82,2.63,6.08,3.95,9.8c1.32,3.72,2.62,7.62,3.91,11.7c1.29,4.08,2.58,8.24,3.87,12.47c1.29,4.24,2.57,8.27,3.84,12.09
				c1.27,3.82,2.53,7.34,3.8,10.54c1.27,3.2,2.54,5.81,3.84,7.83c0.41,1.39,0.36,2.62-0.16,3.68c-0.52,1.06-1.25,1.85-2.21,2.36
				c-0.96,0.52-2.05,0.68-3.29,0.5c-1.24-0.18-2.38-0.79-3.41-1.82c-1.24-1.91-2.38-3.95-3.41-6.12c-1.03-2.17-1.92-4.26-2.67-6.28
				c-0.75-2.01-1.36-3.84-1.82-5.46c-0.47-1.63-0.77-2.88-0.93-3.76c-2.58,0-5.06-0.01-7.44-0.04c-2.38-0.03-4.73-0.04-7.05-0.04
				c-2.32,0-4.66-0.01-7.01-0.04c-2.35-0.03-4.84-0.06-7.48-0.12c-0.62,2.38-1.1,4.45-1.43,6.24c-0.34,1.78-0.66,3.5-0.97,5.15
				c-0.31,1.65-0.7,3.36-1.16,5.11c-0.47,1.76-1.14,3.77-2.01,6.04c-0.93,1.14-2,1.83-3.22,2.09c-1.21,0.26-2.32,0.17-3.33-0.27
				c-1.01-0.44-1.82-1.17-2.44-2.21C1670.28,1471.97,1670.12,1470.73,1670.43,1469.28z M1700.03,1406.29
				c-0.72-0.21-1.45,0.26-2.17,1.39c-0.72,1.14-1.43,2.69-2.13,4.65c-0.7,1.96-1.38,4.21-2.05,6.74c-0.67,2.53-1.33,5.09-1.98,7.67
				c-0.65,2.58-1.25,5.05-1.82,7.4c-0.57,2.35-1.11,4.35-1.63,6c2.22,0.05,4.27,0.1,6.16,0.16c1.88,0.05,3.74,0.12,5.58,0.19
				c1.83,0.08,3.69,0.16,5.58,0.23c1.88,0.08,3.91,0.14,6.08,0.19c-1.24-3.05-2.29-6.01-3.14-8.87c-0.85-2.87-1.68-5.72-2.48-8.56
				c-0.8-2.84-1.67-5.68-2.6-8.52C1702.51,1412.12,1701.37,1409.23,1700.03,1406.29z"/>
			<path class="st8" d="M1805.18,1468.66c-0.05,1.29-0.52,2.34-1.39,3.14c-0.88,0.8-1.9,1.34-3.06,1.63
				c-1.16,0.28-2.35,0.3-3.56,0.04c-1.21-0.26-2.18-0.83-2.91-1.7c-1.39-1.76-3.05-3.89-4.96-6.39c-1.91-2.5-3.97-5.24-6.16-8.21
				c-2.2-2.97-4.47-6.07-6.82-9.3c-2.35-3.23-4.66-6.42-6.93-9.57c-2.27-3.15-4.44-6.17-6.51-9.07c-2.07-2.89-3.91-5.47-5.54-7.75
				c-1.63-2.27-2.97-4.16-4.03-5.66c-1.06-1.5-1.72-2.43-1.98-2.79c0.36,2.38,0.66,5.11,0.89,8.21c0.23,3.1,0.44,6.37,0.62,9.8
				c0.18,3.44,0.32,6.95,0.43,10.54c0.1,3.59,0.19,7.09,0.27,10.5s0.13,6.64,0.16,9.69c0.03,3.05,0.06,5.71,0.12,7.98
				c-0.1,1.7-0.67,2.97-1.7,3.8c-1.03,0.83-2.17,1.24-3.41,1.24s-2.42-0.43-3.53-1.28c-1.11-0.85-1.77-2.1-1.98-3.76
				c-0.05-3-0.16-6.4-0.31-10.23c-0.15-3.82-0.31-7.84-0.47-12.05c-0.15-4.21-0.3-8.51-0.43-12.9c-0.13-4.39-0.21-8.69-0.23-12.9
				c-0.03-4.21,0.05-8.21,0.23-12.01c0.18-3.8,0.48-7.19,0.89-10.19c0.26-1.39,0.86-2.35,1.82-2.87c0.96-0.52,2.04-0.71,3.25-0.58
				c1.21,0.13,2.43,0.52,3.64,1.16c1.21,0.65,2.23,1.38,3.06,2.21c1.96,2.02,4.15,4.49,6.55,7.44c2.4,2.94,4.88,6.11,7.44,9.49
				c2.56,3.38,5.13,6.88,7.71,10.5c2.58,3.62,5.02,7.13,7.32,10.54c2.3,3.41,4.36,6.6,6.2,9.57c1.83,2.97,3.32,5.49,4.46,7.55
				c-0.57-2.27-0.99-4.95-1.28-8.02c-0.28-3.07-0.5-6.33-0.66-9.76c-0.16-3.43-0.25-6.94-0.27-10.5c-0.03-3.56-0.01-6.99,0.04-10.27
				c0.05-3.28,0.1-6.3,0.16-9.07c0.05-2.76,0.1-5.08,0.16-6.94c0.31-1.45,0.98-2.54,2.01-3.29c1.03-0.75,2.17-1.14,3.41-1.16
				c1.24-0.03,2.41,0.3,3.53,0.97c1.11,0.67,1.87,1.7,2.29,3.1c-0.05,2.89-0.07,6.24-0.04,10.03c0.03,3.8,0.06,7.83,0.12,12.09
				c0.05,4.26,0.12,8.6,0.19,13.02c0.08,4.42,0.17,8.7,0.27,12.86c0.1,4.16,0.23,8.06,0.39,11.7
				C1804.79,1462.89,1804.97,1466.02,1805.18,1468.66z"/>
		</g>
	</g>
</g>
<g>
	<g>
		<defs>
			<path id="XMLID_471_" d="M772.52,1447.79c0,0-22.34,58.04-11.07,121.58c11.27,63.54,30.6,243.11,30.6,243.11h336.56
				c0,0-11.08-308.07-52.24-364.68H772.52z"/>
		</defs>
		<use xlink:href="#XMLID_471_"  style="overflow:visible;fill:#1B3D9E;"/>
		<clipPath id="XMLID_5_">
			<use xlink:href="#XMLID_471_"  style="overflow:visible;"/>
		</clipPath>
		<path class="st9" d="M995.51,1823.43l-14.15-278.83c0,0,20.63,84.3,20.63,106.99s14.59,175.08,14.59,175.08L995.51,1823.43z"/>
		<path class="st9" d="M748.95,1465.89c0,0,271.18,97.84,367.87,84.51l-15.99-135.91l-350.77,1.44L748.95,1465.89z"/>
	</g>
	<g>
		<defs>
			<polygon id="XMLID_470_" points="1124.89,1164.09 1147.55,1282.73 1076.94,1300.37 1066.15,1170.33 			"/>
		</defs>
		<use xlink:href="#XMLID_470_"  style="overflow:visible;fill:#FE8E9C;"/>
		<clipPath id="XMLID_6_">
			<use xlink:href="#XMLID_470_"  style="overflow:visible;"/>
		</clipPath>
		<path class="st10" d="M1100.45,1161.24l-6.37,151.81l-27.94,4.15c0,0-31.7-143.44-18.8-153.11
			C1060.24,1154.41,1100.45,1161.24,1100.45,1161.24"/>
	</g>
	<g>
		<defs>
			<path id="XMLID_469_" d="M1139.36,1154.65l-92.99-193.2v0c-16.47-41.38-138.22-80.7-138.22-80.7l-104.71,17.69
				c0,0-117.45,43.21-134.97,64.86c-17.52,21.64-76.85,254.33-76.85,254.33s119.31-1.89,166.65,17.04v214
				c0,0,251.87,17.04,329.52-15.15c0,0-11.07-137.15-21.65-263.19L1139.36,1154.65z"/>
		</defs>
		<use xlink:href="#XMLID_469_"  style="overflow:visible;fill:#FC476A;"/>
		<clipPath id="XMLID_7_">
			<use xlink:href="#XMLID_469_"  style="overflow:visible;"/>
		</clipPath>
		<path class="st11" d="M1066.15,1170.33l-31.93-151.87c0,0,57.86,139.99,66.24,142.78
			C1108.83,1164.03,1066.15,1170.33,1066.15,1170.33"/>
		<path class="st11" d="M865.49,1458.88c6.38-5.9,52.59-165.38,82.04-171.56s159.32-17.99,159.32-17.99s7.69,165.83-12.41,178.46
			C1074.35,1460.43,865.49,1458.88,865.49,1458.88"/>
	</g>
	<g>
		<defs>
			<path id="XMLID_468_" d="M787.85,689.71c8.87-16.7,49.18-41.7,85.87-42.83c20.69-0.64,39.62,11.58,48.24,30.4
				c19.5,42.59,61.9,143.88,32.21,160.5c-13.22,7.4-30.62,7.68-48.15,4.21c2.72,27.93,3.39,92.71,2.87,101.51
				c-0.73,12.36-86.95-10.03-102.95-21.67c-16-11.64,26.94-116.6,26.94-116.6C821.26,788.48,775.51,712.95,787.85,689.71z"/>
		</defs>
		<use xlink:href="#XMLID_468_"  style="overflow:visible;fill:#FE8E9C;"/>
		<clipPath id="XMLID_8_">
			<use xlink:href="#XMLID_468_"  style="overflow:visible;"/>
		</clipPath>
		<path class="st12" d="M906.01,841.99c0,0-24.09-9.71-45.12-22.86c0,0,18.14,58.2,54.51,56.7L906.01,841.99"/>
		<path class="st12" d="M892.86,688.39c2.82,11.18-8.9,21.73-20.42,22.29c-11.52,0.56-22.17-5.59-32.05-11.54
			c2.51,7.97,1.62,16.96-2.42,24.28c-7.52-8.96-15.12-18.05-20.05-28.66c-4.93-10.61-6.93-23.09-2.86-34.05
			c4.88-13.13,17.63-21.92,30.93-26.32c8.1-2.68,16.71-4.04,25.2-3.23c15.86,1.5,30.26,10.49,41.34,21.94
			c4.62,4.78,8.76,10,12.58,15.43c3.56,5.07,7.55,10.4,10,16.12c1.82,4.24,1.94,8.79-2.53,11.28c-5.67,3.16-13.04,3.03-19.17,1.57
			C906.07,695.74,899.4,692.03,892.86,688.39z"/>
	</g>
	<path class="st13" d="M895.12,718.44c0,0,48.05,26.41,44.57,33.38c-3.48,6.96-37.61-2.62-41.09-0.88
		c-3.48,1.74,6.92,9.96,11.61,9.64c4.69-0.31,37.32,0.52,37.32-8.23C947.53,743.6,932.24,731.12,895.12,718.44z"/>
	<path class="st8" d="M947.71,772.69c0,0-11.44,17.48-37.86,5.1c0,0,4.18,15.48,20.25,14.43
		C951.29,790.84,947.71,772.69,947.71,772.69z"/>
	<path class="st2" d="M906.47,624.05c5.08-3.19,9.17-8.21,9.91-14.12c0.3-2.44-0.07-5.15-1.83-6.87c-1.66-1.62-4.14-1.99-6.45-2.28
		c-8.24-1.03-16.47-2.06-24.71-3.08c-17.39-2.17-35.22-4.32-52.29-0.34c-0.92,0.22-1.84,0.45-2.76,0.71
		c-7.98,2.25-15.6,6.06-21.96,11.39c-3.1,2.6-5.9,5.58-8.22,8.9c-2,2.87-3.6,4.93-3.5,7.59c0.03,0.01,0.05,0.02,0.08,0.03
		c-0.03,0.02-0.05,0.04-0.08,0.06c0-0.03,0-0.06,0-0.09c-14.41-6.02-32.02,4.2-40.59,16.07c-10.05,13.93-12.88,31.68-14.65,48.76
		c-1.28,12.35-2.17,24.76-1.8,37.16c0.05,1.59,0.21,3.39,1.45,4.39c0.85,0.69,2.02,0.81,3.12,0.83c8.78,0.09,16.47-5.41,22.67-11.8
		c14.78,36.32,61.02,73.1,61.02,73.1s5.79-41.46,1.25-50.04c0,0-22.85,4.94-26.01-12.55c-6.42-35.53,33.82-13.45,33.82-13.45
		l-9.63-34.88c0,0,30.83,14.66,50,9.11c19.17-5.55-2.02-20.69-2.02-20.69s39.43,5.78,45.99,5.55c6.56-0.23-7.65-26.24-7.65-26.24
		s10.74,10.6,32.11,5.55C956.96,653.71,937.47,636.49,906.47,624.05z"/>
	<g>
		<path class="st8" d="M881.48,945.36c0,0-63.42,10.11-72.48,30.82c0,0-45.44-48.02-5.57-77.73
			C803.44,898.45,837.46,939.78,881.48,945.36z"/>
		<path class="st8" d="M908.89,943.5c0,0,29.16-30.3,51.7-23.13c0,0-21.56-25.62-52.44-39.62L908.89,943.5z"/>
	</g>
	<path class="st14" d="M908.89,943.5c0,0-14.91,31.06-14.42,40.91c0.49,9.85,10.34,127.56,10.34,127.56l4.08,6.1
		c0,0-11.33-130.63-9.92-136.74C900.38,975.22,908.89,943.5,908.89,943.5z"/>
	<g>
		<ellipse class="st8" cx="912.11" cy="993.37" rx="6.06" ry="10.32"/>
		<path class="st8" d="M922.4,1038.17c0,5.7-2.71,10.32-6.06,10.32c-3.35,0-6.06-4.62-6.06-10.32s2.71-10.32,6.06-10.32
			C919.69,1027.85,922.4,1032.47,922.4,1038.17z"/>
		<path class="st8" d="M926.33,1082.97c0,5.7-2.71,10.32-6.06,10.32s-6.06-4.62-6.06-10.32s2.71-10.32,6.06-10.32
			S926.33,1077.27,926.33,1082.97z"/>
	</g>
	<path class="st14" d="M758.27,1234.68c0,0-2.97-187.62-3.94-196.51c-0.97-8.88-27.22,169.04-35,169.04
		c-7.78,0-72.82,11.34-72.82,11.34S744.71,1224.23,758.27,1234.68z"/>
	<g>
		<defs>
			<path id="XMLID_467_" d="M982.15,1238.78c9.91-16.44,42.4-69.33,54.9-77.45c0,0-19.65-24.1,0-30.03
				c19.65-5.93,102.32,23.35,102.32,23.35s12.6,27.06-19.28,41.89l-42.26-16.31c0,0-52.64,40.04-61.17,65.25
				c0,0,5.56,12.6-1.85,13.35c-5.45,0.55-22.13-7.92-30.56-12.44C981.49,1244.91,980.54,1241.45,982.15,1238.78z"/>
		</defs>
		<use xlink:href="#XMLID_467_"  style="overflow:visible;fill:#1B3D9E;"/>
		<clipPath id="XMLID_9_">
			<use xlink:href="#XMLID_467_"  style="overflow:visible;"/>
		</clipPath>
		<path class="st15" d="M1037.05,1161.32c0,0,50.53,22.67,49.48,22.26c-1.05-0.41-28.05,28.31-39.26,26.19
			c-11.21-2.12-35.15-25.46-35.15-25.46L1037.05,1161.32"/>
		<path class="st15" d="M1057.77,1130.5c0,0-2.99,13.88,1.22,19.86c4.21,5.99,86.32,26.5,86.32,26.5s-2.35-21.03-3.5-24.04
			C1140.67,1149.82,1057.77,1130.5,1057.77,1130.5z"/>
	</g>
	<g>
		<defs>
			<path id="XMLID_466_" d="M1062.04,1197.6c0,0-14.83-1.74-20.06-4.07c-5.23-2.33-20.12-14.26-20.12-14.26l4.38-6.82
				c0,0-9.85-7.13-17.99-8.29c-6.38-0.91-26.5,6.92-34.92,10.36c-209.97,7.87-309.99,45.17-309.99,45.17l-53.32-2.07
				c-20.42,71.19,27.23,111.32,53.32,120.85c23.25,8.5,268.84-92.49,322.01-114.57c6.49,4.47,23.13,15.52,31.91,17.6
				c11.05,2.62,11.34-6.11,11.34-6.11c12.79,2.04,14.42-9.89,14.42-9.89c12.09,2.62,14.08-10.47,14.08-10.47
				C1069.31,1213.59,1062.04,1197.6,1062.04,1197.6z"/>
		</defs>
		<use xlink:href="#XMLID_466_"  style="overflow:visible;fill:#FE8E9C;"/>
		<clipPath id="XMLID_10_">
			<use xlink:href="#XMLID_466_"  style="overflow:visible;"/>
		</clipPath>
		<path class="st16" d="M599.36,1280.2c0,0,65.51,21.55,103.03,11.24c37.52-10.31,282.96-67.54,282.96-67.54
			s-240.75,146.22-299.79,139.68C626.54,1357.04,599.36,1280.2,599.36,1280.2z"/>
	</g>
	<g>
		<g>
			<defs>
				<path id="XMLID_446_" d="M964.41,1329.33c0,0,326.94-85.79,332.07-77.79c5.13,8,34.21,124.31,34.21,124.31l-366.28,61.58
					V1329.33z"/>
			</defs>
			<use xlink:href="#XMLID_446_"  style="overflow:visible;fill:#D4DFFF;"/>
			<clipPath id="XMLID_11_">
				<use xlink:href="#XMLID_446_"  style="overflow:visible;"/>
			</clipPath>
			<path class="st17" d="M1087.79,1285.23c1.27,2.17-38.72,135.96-112.22,162.56c-73.5,26.6,0,0,0,0l-38.71,5.01l18.84-139.74
				L1087.79,1285.23z"/>
		</g>
		<path class="st5" d="M964.41,1437.42c0,0,76.65,71.57,91.34,81.23c13.95,9.18,336.23-43.02,336.23-43.02l-61.29-99.79
			L964.41,1437.42z"/>
		<polygon class="st18" points="1296.48,1251.53 1362.98,1363.59 1391.98,1475.64 1330.69,1375.84 		"/>
		<polygon class="st18" points="1272.31,1269.33 1161.03,1296.8 1171.24,1356.77 1288.63,1336.36 		"/>
	</g>
	<g>
		<path class="st13" d="M1315.96,1487.59c0,0,3.72,9.35,10.72,8.04s10.99-4.99,10.99-4.99s17.91,1.6,20.73,1.22
			c2.83-0.38,9.17-8.47,9.17-8.47s3.72,1.5,10.71,0s15.94-14.21,15.94-14.21l-9.95,2.19L1315.96,1487.59z"/>
		<g>
			<path class="st19" d="M1394.94,1472.37c0.63-1.09,0.31-2.47-0.71-3.19c-5.13-3.63-19.93-13.79-22.4-11.94
				c-2.99,2.24-3.98,5.73,0,10.7s7.47,15.43,13.44,13.94C1389.57,1480.81,1393.23,1475.35,1394.94,1472.37z"/>
			<path class="st19" d="M1378.47,1478.26c0,0-19.02-20.72-22.57-21.24s-7.65,2.28-6.35,7.88c1.31,5.6,12.6,24.27,19.65,25.58
				C1376.25,1491.78,1382.91,1485.33,1378.47,1478.26z"/>
			<path class="st19" d="M1358.4,1491.86c0,0-12-34.92-17.59-34.91c-5.58,0.01-9.49,13.97-7.82,22.35
				c1.67,8.37,8.09,18.7,14.24,18.7S1358.4,1491.86,1358.4,1491.86z"/>
			<path class="st19" d="M1330.48,1493.26c-0.28-0.84-5.86-27.08-9.77-27.36c-3.91-0.28-6.42,5.86-5.58,13.68
				c0.84,7.82,1.12,17.02,5.3,18.42C1328.22,1500.61,1330.48,1493.26,1330.48,1493.26z"/>
		</g>
	</g>
</g>
<g>
	<rect x="416.4" y="1361.2" class="st20" width="254.92" height="451.27"/>
	<rect x="671.32" y="1361.2" class="st21" width="162.95" height="451.27"/>
	<rect x="536.83" y="1361.2" class="st21" width="33.2" height="451.27"/>
	<rect x="741.67" y="1361.2" class="st20" width="33.2" height="451.27"/>
</g>
<g>
	<rect x="362.16" y="1621.17" class="st5" width="363.4" height="54.67"/>
	<rect x="377.42" y="1675.84" class="st6" width="332.88" height="136.63"/>
	<rect x="518.33" y="1621.17" class="st6" width="51.71" height="54.67"/>
	<rect x="377.42" y="1675.84" class="st22" width="332.88" height="26.27"/>
	<rect x="518" y="1674.77" class="st23" width="51.71" height="27.33"/>
	<rect x="518.33" y="1702.11" class="st24" width="51.71" height="54.67"/>
</g>
<g>
	<g>
		<path class="st6" d="M2056.43,1427.72c0,0,488.45-4.29,493.4,0c4.95,4.29,0,385.18,0,385.18s-486.8,0-493.4,0
			C2049.83,1812.9,2056.43,1427.72,2056.43,1427.72z"/>
		<path class="st24" d="M2056.43,1427.72c0,0,128.97-122.76,136.84-125.38c7.87-2.62,444.69-2.62,443.38,0
			c-1.31,2.62-86.82,125.38-86.82,125.38H2056.43z"/>
		<path class="st24" d="M2549.83,1427.72v385.18h108.74c0,0,1.76-385.99,0-385.18C2656.81,1428.53,2549.83,1427.72,2549.83,1427.72z
			"/>
		<polygon class="st25" points="2658.57,1427.72 2602.03,1352.63 2549.83,1427.72 		"/>
	</g>
	<rect x="2271.37" y="1425.81" class="st24" width="47.97" height="180.31"/>
	<polygon class="st6" points="2318.65,1427.47 2271.37,1427.78 2357.61,1300.37 2401.86,1300.9 	"/>
</g>
<g>
	<g>
		<defs>
			<path id="XMLID_445_" d="M2312.24,981.19c-7.69,13.54-27.06,13.9-35.25,0.66c-45.42-73.42-154.21-270.61-81.26-370.25
				c90.72-123.91,234.86-44.45,239.29,57.63C2438.5,749.48,2350.16,914.37,2312.24,981.19z"/>
		</defs>
		<use xlink:href="#XMLID_445_"  style="overflow:visible;fill:#D4DFFF;"/>
		<clipPath id="XMLID_12_">
			<use xlink:href="#XMLID_445_"  style="overflow:visible;"/>
		</clipPath>
		<path class="st26" d="M2183.34,633.08c0,0-12.06,270.46,165.37,280.92c177.43,10.46,0,0,0,0s-13.14,93.28-45.54,97.88
			c-32.4,4.6-72.66-43.71-91.07-89.72s-83.97-215.11-64.42-250.77C2167.24,635.73,2183.34,633.08,2183.34,633.08"/>
	</g>
	<path class="st8" d="M2344.18,608.65c-19.89-12.6-47.62-12.48-67.34,0.48c-20.98,13.79-24.98,40.16-20.62,63.25
		c2.47,13.12,7.35,26.14,16.35,36.01c18.74,20.55,45.63,17.64,65.72,0.71C2367.4,684.58,2381.92,632.56,2344.18,608.65z"/>
</g>
<path class="st4" d="M2722.13,1816.64H291.2c-2.06,0-3.74-1.67-3.74-3.74s1.67-3.74,3.74-3.74h2430.94c2.06,0,3.74,1.67,3.74,3.74
	S2724.2,1816.64,2722.13,1816.64z"/>
<g>
</g>
<g>
</g>
<g>
</g>
<g>
</g>
<g>
</g>
<g>
</g>
<g>
</g>
<g>
</g>
<g>
</g>
<g>
</g>
<g>
</g>
</svg>
