<?xml version="1.0" encoding="utf-8"?>
<!-- Generator: Adobe Illustrator 23.0.2, SVG Export Plug-In . SVG Version: 6.00 Build 0)  -->
<svg version="1.1" id="Illustration" xmlns="http://www.w3.org/2000/svg" xmlns:xlink="http://www.w3.org/1999/xlink" x="0px"
	 y="0px" viewBox="0 0 3710 3710" style="enable-background:new 0 0 3710 3710;" xml:space="preserve">
<style type="text/css">
	.st0{fill:url(#SVGID_1_);}
	.st1{fill:#91B3FA;}
	.st2{fill:#FFFFFF;}
	.st3{fill:#BDD0FB;}
	.st4{fill:#7D97F4;}
	.st5{opacity:0.1;fill:#91B3FA;}
	.st6{opacity:0.68;}
	.st7{fill:url(#SVGID_2_);}
	.st8{opacity:0.6;}
	.st9{opacity:0.6;fill:#FFFFFF;}
	.st10{fill:url(#SVGID_3_);}
	.st11{fill:url(#SVGID_4_);}
	.st12{fill:url(#SVGID_5_);}
	.st13{fill:url(#SVGID_6_);}
	.st14{fill:url(#SVGID_7_);}
	.st15{fill:url(#SVGID_8_);}
	.st16{fill:url(#SVGID_9_);}
	.st17{fill:url(#SVGID_10_);}
	.st18{opacity:0.37;fill:#FFFFFF;}
	.st19{fill:url(#SVGID_11_);}
	.st20{fill:url(#SVGID_12_);}
	.st21{fill:url(#SVGID_13_);}
	.st22{fill:url(#SVGID_14_);}
	.st23{fill:url(#SVGID_15_);}
	.st24{fill:url(#SVGID_16_);}
	.st25{fill:url(#SVGID_17_);}
	.st26{fill:url(#SVGID_18_);}
	.st27{fill:url(#SVGID_19_);}
	.st28{fill:url(#SVGID_20_);}
	.st29{fill:url(#SVGID_21_);}
	.st30{fill:url(#SVGID_22_);}
	.st31{fill:url(#SVGID_23_);}
	.st32{fill:url(#SVGID_24_);}
	.st33{fill:url(#SVGID_25_);}
	.st34{fill:url(#SVGID_26_);}
	.st35{fill:url(#SVGID_27_);}
	.st36{fill:url(#SVGID_28_);}
	.st37{fill:url(#SVGID_29_);}
	.st38{fill:url(#SVGID_30_);}
	.st39{fill:url(#SVGID_31_);}
	.st40{fill:url(#SVGID_32_);}
	.st41{fill:url(#SVGID_33_);}
	.st42{fill:url(#SVGID_34_);}
	.st43{fill:url(#SVGID_35_);}
	.st44{fill:url(#SVGID_36_);}
	.st45{fill:url(#SVGID_37_);}
	.st46{fill:url(#SVGID_38_);}
	.st47{fill:url(#SVGID_39_);}
	.st48{fill:url(#SVGID_40_);}
	.st49{fill:url(#SVGID_41_);}
	.st50{fill:url(#SVGID_42_);}
	.st51{fill:url(#SVGID_43_);}
	.st52{fill:url(#SVGID_44_);}
	.st53{fill:url(#SVGID_45_);}
	.st54{fill:url(#SVGID_46_);}
	.st55{fill:url(#SVGID_47_);}
	.st56{fill:url(#SVGID_48_);}
	.st57{fill:url(#SVGID_49_);}
	.st58{fill:url(#SVGID_50_);}
	.st59{fill:url(#SVGID_51_);}
	.st60{fill:url(#SVGID_52_);}
	.st61{fill:url(#SVGID_53_);}
	.st62{fill:url(#SVGID_54_);}
	.st63{fill:url(#SVGID_55_);}
	.st64{fill:url(#SVGID_56_);}
</style>
<g>
	<linearGradient id="SVGID_1_" gradientUnits="userSpaceOnUse" x1="3590.8918" y1="4076.0273" x2="1125.7065" y2="1014.4221">
		<stop  offset="0" style="stop-color:#DAE3FE"/>
		<stop  offset="1" style="stop-color:#E9EFFD"/>
	</linearGradient>
	<path class="st0" d="M2916.71,2865.86c-56.84,59.46-110.63,97.81-153.12,128.1c-499.52,356.12-1090.58,252.31-1216.2,226.96
		c-185.5-37.43-544.06-109.79-803.29-412.7c-392.2-458.27-331.13-1180.26-26.91-1656.85c55.65-87.18,349.58-571.03,947.01-648.63
		c361.56-46.96,783.02,47.75,1088.23,301.82C3393.09,1337.88,3347.48,2415.27,2916.71,2865.86z"/>
	<g>
		<g>
			<path class="st1" d="M3201.23,500.93c3.41-14.5-16.99-24.14-29.48-14.01c-126.84,102.85-431.6,410.86-355.65,949.12
				c95.29,675.33-67.62,921.75-270.41,1072.06c0,0,278.5-70.69,453.72-320.73C3429.6,1573.45,3140.66,758.77,3201.23,500.93z"/>
			<path class="st2" d="M3104.7,711.87c-15.87,75.18-30.01,150.59-40.94,226.34c-11.39,75.69-20.11,151.64-26.09,227.71
				c-5.63,76.09-9.61,152.26-9.84,228.46c-0.62,76.2,2.55,152.33,6.04,228.76c2.99,76.4,6.51,153.36,0.92,230.86
				c-5.5,77.34-21.78,155.36-54.09,228.5c-8.08,18.23-16.57,36.4-26.22,53.96c-9.27,17.72-19.46,35.09-30,52.3
				c-21.29,34.33-45.25,67.5-71.95,98.98c-53.6,62.85-118.24,118.61-189.45,165.8c-7.5,4.97-18.23,3.75-23.99-2.73
				c-5.65-6.35-4.39-15.41,2.76-20.44l0.05-0.04c16.94-11.9,33.71-23.95,49.8-36.61c8.16-6.22,15.99-12.74,23.95-19.13
				c7.67-6.64,15.65-13.03,23.08-19.87c30.24-26.91,58.25-55.63,83.67-85.99c51.12-60.44,92.05-127.79,123.05-197.61
				c15.05-35.07,27.08-71.04,35.87-107.69c8.75-36.65,14.26-73.94,17.3-111.53c6.1-75.22,3.34-151.42,0.99-227.83
				c-2.24-76.44-3.89-153.26-1.87-230.03c0.89-38.38,2.58-76.74,5.06-115.06c1.11-19.16,2.66-38.3,4.16-57.44
				c1.72-19.13,3.55-38.25,5.57-57.35c8.23-76.39,19.16-152.53,32.86-228.26c14.12-75.68,30.56-151,50.33-225.66
				c0.57-2.13,3.03-3.47,5.5-2.98C3103.61,707.77,3105.13,709.8,3104.7,711.87z"/>
		</g>
		<g>
			<g>
				<path class="st3" d="M2876.17,1926.66c12,18.65,39.15,18.98,51.85,0.79c70.04-100.36,242.41-402.02,126.04-808.17
					c-98.27-342.97-118.97-538.28-122.22-627.6c-0.69-18.89-25.09-25.92-35.75-10.31
					C2778.43,653.53,2441.23,1250.81,2876.17,1926.66z"/>
				<path class="st2" d="M2905.49,1920.15c0.51,0.19,1.05,0.34,1.62,0.44c4.71,0.8,9.19-2.37,9.99-7.08
					c0.91-5.34,89.68-540-25.42-1023.05c-1.11-4.65-5.78-7.52-10.43-6.42c-4.65,1.11-7.52,5.78-6.42,10.43
					c114.27,479.53,26.1,1010.82,25.2,1016.13C2899.31,1914.75,2901.69,1918.72,2905.49,1920.15z"/>
			</g>
		</g>
	</g>
	<g>
		
			<ellipse transform="matrix(0.0439 -0.999 0.999 0.0439 -66.3675 3475.3857)" class="st4" cx="1782.47" cy="1772.37" rx="1209.58" ry="1305.62"/>
		<ellipse class="st5" cx="1711.8" cy="1685.1" rx="1024.51" ry="967.83"/>
		<g class="st6">
			<path class="st2" d="M2116.01,1778.21c-0.31,213.34-14.94,427.11-52.54,637.42c-9.52,52.54-20.55,104.82-33.7,156.61
				c-13.19,51.77-28.41,103.08-47.05,153.26c-18.8,50.04-40.61,99.37-70.2,144.45c-14.91,22.38-31.82,43.81-52.69,61.45
				c-10.43,8.76-21.89,16.53-34.49,22.23c-12.57,5.66-26.32,9.24-40.26,9.49c-13.93,0.41-27.88-2.32-40.7-7.48
				c-12.87-5.11-24.61-12.53-35.29-21.01c-21.37-17.09-38.65-38.29-53.82-60.49c-30.11-44.76-52.22-93.98-71.22-143.95
				c-18.88-50.09-34.25-101.37-47.55-153.1c-13.28-51.75-24.42-104.01-34.02-156.53c-19.15-105.06-32.22-211.13-41.03-317.49
				c-8.75-106.38-13.14-213.1-13.68-319.83c-0.26-53.36,1.19-106.71,3.09-160.03c2-53.32,4.93-106.6,8.86-159.81
				c7.89-106.41,19.68-212.58,37.21-317.88c8.79-52.64,19.05-105.05,31.38-157.01c12.36-51.93,26.73-103.46,44.56-153.86
				c8.96-25.18,18.75-50.09,29.92-74.41c11.15-24.32,23.63-48.11,38.3-70.6c14.7-22.39,31.6-43.77,52.65-60.87
				c10.52-8.48,22.11-15.86,34.81-20.86c12.65-5.06,26.37-7.63,40.03-7.11c13.66,0.39,27.13,3.79,39.55,9.27
				c12.44,5.5,23.88,12.98,34.37,21.45c20.99,17.06,38.37,37.92,53.79,59.82c30.65,44.11,53.75,92.76,73.76,142.26
				c19.87,49.64,36.27,100.56,50.56,152c14.24,51.47,26.29,103.52,36.73,155.87C2098.62,1351.04,2115.39,1564.83,2116.01,1778.21z
				 M2100.22,1778.21c0.2-106.3-3.84-212.63-12.68-318.56c-8.71-105.93-21.9-211.55-41.56-316
				c-9.82-52.22-21.25-104.14-34.85-155.49c-13.65-51.32-29.41-102.12-48.59-151.61c-19.32-49.34-41.73-97.82-71.46-141.62
				c-14.95-21.75-31.8-42.4-52.03-59.2c-10.11-8.35-21.09-15.69-32.97-21.09c-11.87-5.34-24.65-8.84-37.65-9.18
				c-12.99-0.41-25.97,2.2-37.98,7.15c-12.06,4.9-23.13,12.1-33.22,20.42c-20.19,16.78-36.55,37.88-50.77,60.07
				c-14.19,22.29-26.28,45.93-37.05,70.12c-10.79,24.2-20.24,49.01-28.86,74.1c-17.15,50.23-30.88,101.61-42.61,153.41
				c-11.7,51.82-21.34,104.11-29.53,156.63c-16.31,105.05-26.9,210.96-33.6,317.06c-6.77,106.12-9.11,212.48-8.92,318.79
				c-0.28,106.29,3.27,212.62,11.17,318.63c7.96,105.99,20.16,211.71,38.41,316.4c9.15,52.33,19.83,104.39,32.63,155.92
				c12.82,51.51,27.7,102.53,46.01,152.28c18.41,49.61,39.94,98.42,69.04,142.39c14.64,21.8,31.31,42.47,51.5,58.86
				c10.09,8.13,21.07,15.17,32.94,19.99c11.84,4.83,24.53,7.52,37.26,7.09c12.72-0.33,25.25-3.69,36.89-9.02
				c11.65-5.37,22.4-12.76,32.27-21.19c19.76-16.96,36.06-37.89,50.45-59.88c28.59-44.31,49.81-93.23,68.01-142.93
				c18.07-49.84,32.78-100.9,45.47-152.45c12.66-51.56,23.21-103.65,32.27-156c18.13-104.7,30.18-210.44,38.19-316.43
				C2096.51,1990.86,2100.26,1884.53,2100.22,1778.21z"/>
			<path class="st2" d="M2654.19,1778.21c-0.74,137.38-18.4,274.83-55.17,407.31c-37.42,132.18-93.83,259.34-170.41,373.51
				c-38.3,57.02-81.68,110.69-130.16,159.39c-48.46,48.68-102.05,92.37-160.22,128.98c-58.22,36.47-121.11,65.67-186.94,85.48
				c-65.79,19.86-134.47,30.21-203.22,30.28c-68.74-0.01-137.45-10.3-203.27-30.1c-65.87-19.75-128.8-48.9-187.09-85.34
				c-58.23-36.57-111.9-80.22-160.44-128.89c-48.56-48.67-92.03-102.34-130.41-159.36c-76.74-114.18-133.26-241.4-170.86-373.64
				c-18.5-66.24-32.26-133.8-41.37-201.95c-9.06-68.17-13.61-136.91-13.93-205.67c0.36-68.77,4.95-137.5,14.05-205.65
				c9.15-68.14,22.96-135.68,41.51-201.89c37.69-132.19,94.3-259.32,171.09-373.38c38.4-56.97,81.87-110.57,130.43-159.18
				c48.54-48.59,102.17-92.2,160.39-128.66c58.27-36.34,121.19-65.27,186.94-85.02c65.71-19.83,134.3-30.17,202.95-30.24
				c68.65,0.12,137.23,10.52,202.9,30.4c65.72,19.8,128.59,48.79,186.79,85.17c58.16,36.5,111.71,80.15,160.17,128.75
				c48.47,48.63,91.86,102.24,130.17,159.21c76.63,114.05,133.13,241.12,170.64,373.25
				C2635.61,1503.4,2653.36,1640.82,2654.19,1778.21z M2636.09,1778.21c-0.2-135.82-17.12-271.79-52.96-402.9
				c-36.04-130.91-90.3-257.29-164.99-370.95c-37.33-56.77-79.73-110.28-127.21-158.92c-47.5-48.56-99.98-92.5-157.36-129.02
				c-57.46-36.32-119.5-65.55-184.56-85.32c-65.03-19.79-132.92-30.19-200.93-30.41c-68.02,0.28-135.89,10.74-200.88,30.58
				c-65.02,19.82-127.02,49.11-184.41,85.47c-57.32,36.56-109.72,80.54-157.14,129.12c-47.41,48.66-89.72,102.18-126.96,158.95
				c-74.54,113.64-128.69,239.97-164.55,370.81c-17.86,65.5-30.8,132.28-39.56,199.57c-8.79,67.29-13.12,135.15-13.27,203.03
				c0.19,67.88,4.57,135.73,13.4,203.01c8.81,67.27,21.79,134.04,39.7,199.51c35.95,130.79,90.18,257.03,164.78,370.56
				c37.26,56.72,79.58,110.18,126.98,158.78c47.42,48.51,99.78,92.45,157.09,128.89c57.38,36.26,119.35,65.33,184.26,85.15
				c64.88,19.86,132.64,30.37,200.56,30.71c67.93-0.28,135.71-10.72,200.62-30.53c64.95-19.76,126.97-48.79,184.41-85.01
				c57.37-36.41,109.81-80.3,157.31-128.8c47.48-48.58,89.88-102.03,127.23-158.74c74.75-113.54,129.1-239.83,165.23-370.69
				C2618.79,2049.98,2635.8,1914.03,2636.09,1778.21z"/>
			<path class="st2" d="M690.71,1311.7c-0.66-0.01-1.19-0.54-1.18-1.2c0.01-0.65,0.53-1.18,1.18-1.18l272.12-2.2l272.12-1.25
				l544.24-1l544.24,1.11l272.12,1.36l272.12,2.37c0.44,0,0.8,0.36,0.79,0.81c0,0.44-0.36,0.79-0.79,0.79l-272.12,2.37l-272.12,1.36
				l-544.24,1.11l-544.24-1.01l-272.12-1.25L690.71,1311.7z"/>
			<path class="st2" d="M1005.22,854.72c0.01-0.64,0.53-1.16,1.17-1.17c64.4-1.02,128.8-1.46,193.2-2.2l193.2-1.25
				c64.4-0.53,128.8-0.47,193.2-0.64l193.2-0.37l386.39,1.11l193.2,1.36c64.4,0.81,128.8,1.28,193.2,2.37
				c0.44,0.01,0.79,0.37,0.79,0.81c-0.01,0.43-0.36,0.78-0.79,0.79c-64.4,1.09-128.8,1.57-193.2,2.37l-193.2,1.36l-386.39,1.11
				l-193.2-0.37c-64.4-0.16-128.8-0.11-193.2-0.64l-193.2-1.25c-64.4-0.74-128.8-1.18-193.2-2.2
				C1005.74,855.91,1005.21,855.37,1005.22,854.72z"/>
			<path class="st2" d="M596.14,1767.48c-0.66-0.01-1.19-0.54-1.18-1.2c0.01-0.65,0.53-1.18,1.18-1.18l295.76-2.19l295.76-1.25
				l591.52-1.01l591.52,1.11l295.76,1.36l295.76,2.37c0.44,0,0.8,0.36,0.79,0.81c0,0.44-0.36,0.79-0.79,0.79l-295.76,2.37
				l-295.76,1.36l-591.52,1.11l-591.52-1.01l-295.76-1.25L596.14,1767.48z"/>
			<path class="st2" d="M690.71,2220.87l272.12-2.2l272.12-1.25l544.24-1.01l544.24,1.11l272.12,1.36l272.12,2.37
				c0.44,0,0.8,0.37,0.79,0.81c0,0.44-0.36,0.79-0.79,0.79l-272.12,2.37l-272.12,1.36l-544.24,1.11l-544.24-1.01l-272.12-1.25
				l-272.12-2.2c-0.66-0.01-1.19-0.54-1.18-1.2C689.53,2221.4,690.06,2220.88,690.71,2220.87z"/>
			<path class="st2" d="M2595.08,2677.84c0,2.3-1.87,4.17-4.17,4.17H1045.33c-2.31,0-4.17-1.87-4.17-4.17c0-2.3,1.87-4.17,4.17-4.17
				H2590.9C2593.21,2673.67,2595.08,2675.54,2595.08,2677.84z"/>
		</g>
	</g>
	<g>
		<linearGradient id="SVGID_2_" gradientUnits="userSpaceOnUse" x1="1409.4346" y1="2116.8335" x2="3113.3164" y2="2116.8335">
			<stop  offset="0" style="stop-color:#4F52FF"/>
			<stop  offset="1" style="stop-color:#4042E2"/>
		</linearGradient>
		<path class="st7" d="M2923.76,1032.68l-1315.32,22.12c-72.57,1.22-131.44,59.09-133.92,131.63l-65.03,1908.61
			c-1.93,56.76,43.51,103.84,100.31,103.92l1507.99,2.05c53.36,0.07,96.41-43.64,95.51-97l-32.27-1919.26
			C3079.6,1099.33,3009.18,1031.25,2923.76,1032.68z"/>
		<path class="st3" d="M2796.97,3172.99l0.02,0l168.65-5.02c56.77-1.69,102.18-49.26,101.22-106.05l-4.28-254.68
			c-0.04-2.37-2-4.26-4.37-4.22c-2.41,0.17-4.27,2-4.22,4.37l4.28,254.68c0.88,52.11-40.79,95.76-92.89,97.31l-168.65,5.02
			c-2.37,0.07-4.24,2.05-4.17,4.42C2792.63,3171.18,2794.6,3173.05,2796.97,3172.99z"/>
		<path class="st3" d="M3057.06,2732.72c2.35-0.06,4.23-2.01,4.19-4.37l-0.69-41.24c-0.04-2.37-1.99-4.27-4.37-4.22
			c-0.01,0-0.03,0-0.03,0c-2.37,0.06-4.24,2.01-4.2,4.37l0.69,41.24c0.04,2.37,1.99,4.27,4.37,4.22
			C3057.02,2732.72,3057.05,2732.72,3057.06,2732.72z"/>
		<g>
			<path class="st1" d="M2919.46,1017.29c-179.21,27.38-795.61,113.1-1306.95,82.48c-23.32-1.4-43.23,16.59-44.08,39.93
				l-69.6,1917.19c-0.95,26.29,19.48,48.41,45.76,49.52c214.99,9.1,1100.36,43.36,1415.3,5.01c19.17-2.33,33.47-18.75,33.26-38.05
				l-21.99-2012.13C2970.87,1033.91,2946.48,1013.16,2919.46,1017.29z"/>
			<path class="st3" d="M2901.05,1067.3c-172.46,26.35-765.65,108.84-1257.73,79.38c-22.44-1.34-41.61,15.96-42.42,38.43
				l-66.97,1844.99c-0.92,25.3,18.74,46.59,44.04,47.66c206.9,8.76,1058.92,41.73,1362.01,4.82c18.45-2.25,32.21-18.04,32.01-36.62
				l-21.17-1936.36C2950.53,1083.3,2927.06,1063.33,2901.05,1067.3z"/>
			<g class="st8">
				<path class="st2" d="M1660.09,1308.4c-7.06,0.12-12.56-5.56-12.21-12.61l0.04-0.89c0.35-7.06,6.41-12.97,13.47-13.15
					l1116.35-27.57c7.06-0.17,9.32,4.26,5.01,9.86l-12.02,15.63c-4.31,5.6-13.61,10.28-20.67,10.4L1660.09,1308.4z"/>
			</g>
			<g class="st8">
				<path class="st2" d="M2778.98,1327.86c7.06-0.17,9.32,4.26,5.01,9.86l-12.02,15.63c-4.31,5.6-13.61,10.28-20.67,10.4
					l-1089.97,18.33c-7.06,0.12-12.56-5.56-12.21-12.61l0.04-0.89c0.35-7.06,6.41-12.97,13.47-13.15L2778.98,1327.86z"/>
			</g>
			<path class="st2" d="M2559.99,1965.97c-0.57-57.54-0.41-111.55,7.76-139.99c4.95-17.23,22.02-28.93,41.65-28.62
				c0.2,0,0.4,0.01,0.61,0.02c27.43,0.77,74.07,5.48,115.21,9.63c18.9,1.9,36.07,3.64,48.55,4.68l0,0
				c9.02,0.76,17.31,5.01,22.72,11.66c4.85,5.95,7.03,13.29,6.14,20.67l-14.95,124.01c-2.32,19.24-20.15,33.65-41.49,33.52
				l-148.05-0.88c-0.13,0-0.27,0-0.41-0.01C2577.07,2000.32,2560.18,1984.84,2559.99,1965.97z M2772.75,1823.72
				c-12.53-1.06-29.77-2.79-48.75-4.71c-38.92-3.92-87.35-8.81-114.34-9.57c-13.87-0.72-26.88,7.96-30.3,19.86
				c-7.72,26.89-7.86,79.93-7.29,136.54c0.13,12.36,11.69,22.49,25.84,22.71c0.1,0,0.2,0,0.29,0.01l148.05,0.88
				c15.19,0.09,27.84-9.75,29.42-22.89l14.95-124.01c0.49-4.09-0.76-8.21-3.51-11.59
				C2783.77,1826.84,2778.53,1824.21,2772.75,1823.72L2772.75,1823.72z"/>
			<path class="st9" d="M2756.66,1835.94c-31.06-2.61-98.55-10.52-130.6-11.42c-13.58-0.38-25.62,7.64-28.99,19.37
				c-6.54,22.78-6.43,68.39-6.01,110.49c0.13,12.61,11.54,22.85,25.68,22.93l118.32,0.71c14.55,0.09,26.78-9.65,28.34-22.54
				l11.94-99.09C2776.57,1846.13,2768.18,1836.9,2756.66,1835.94z"/>
			<g class="st8">
				<path class="st2" d="M2469.1,1869.74c7.06-0.06,11.28,5.46,9.38,12.26l-13.73,48.94c-1.91,6.8-9.25,12.28-16.31,12.17
					l-743.99-11.58c-7.06-0.11-12.63-5.98-12.36-13.04l1.11-29.53c0.26-7.06,6.26-12.88,13.32-12.94L2469.1,1869.74z"/>
			</g>
			<path class="st2" d="M2551.41,1633.57c-0.57-57.54-0.41-111.55,7.76-139.99c4.95-17.23,22.02-28.93,41.65-28.62
				c0.2,0,0.4,0.01,0.6,0.02c27.43,0.77,74.07,5.48,115.21,9.63c18.9,1.91,36.07,3.64,48.55,4.69l0,0
				c9.02,0.76,17.3,5.01,22.72,11.66c4.85,5.95,7.03,13.29,6.14,20.67l-14.95,124c-2.32,19.24-20.15,33.65-41.49,33.52l-148.05-0.88
				c-0.14,0-0.27,0-0.41-0.01C2568.48,1667.92,2551.6,1652.44,2551.41,1633.57z M2764.17,1491.32c-12.53-1.06-29.77-2.79-48.75-4.71
				c-38.92-3.92-87.35-8.81-114.34-9.57c-13.87-0.72-26.88,7.96-30.3,19.86c-7.72,26.89-7.86,79.93-7.29,136.54
				c0.13,12.36,11.69,22.49,25.84,22.71c0.1,0,0.2,0,0.29,0l148.05,0.88c15.19,0.09,27.84-9.75,29.42-22.89l14.95-124.01
				c0.49-4.09-0.75-8.21-3.51-11.59C2775.18,1494.44,2769.95,1491.8,2764.17,1491.32L2764.17,1491.32z"/>
			<path class="st9" d="M2748.07,1503.53c-31.06-2.61-98.55-10.52-130.6-11.42c-13.58-0.38-25.62,7.64-28.99,19.37
				c-6.54,22.78-6.43,68.39-6.01,110.49c0.13,12.61,11.54,22.85,25.68,22.94l118.32,0.71c14.55,0.09,26.78-9.65,28.34-22.54
				l11.94-99.09C2767.99,1513.72,2759.59,1504.5,2748.07,1503.53z"/>
			<g class="st8">
				<path class="st2" d="M2460.51,1537.33c7.06-0.06,11.28,5.46,9.38,12.26l-13.73,48.94c-1.91,6.8-9.25,12.28-16.31,12.17
					l-743.98-11.58c-7.06-0.11-12.63-5.98-12.36-13.04l1.11-29.53c0.26-7.06,6.26-12.88,13.32-12.94L2460.51,1537.33z"/>
			</g>
			<path class="st2" d="M2555.06,2283.24c-0.57-57.54-0.41-111.55,7.76-139.99c4.95-17.23,22.02-28.94,41.65-28.63
				c0.2,0,0.4,0.01,0.6,0.01c27.43,0.77,74.07,5.48,115.21,9.63c18.9,1.91,36.07,3.64,48.55,4.68l0,0
				c9.02,0.76,17.3,5.01,22.72,11.66c4.85,5.95,7.03,13.29,6.14,20.67l-14.95,124c-2.32,19.24-20.15,33.65-41.49,33.52l-148.05-0.88
				c-0.14,0-0.27,0-0.41-0.01C2572.13,2317.59,2555.25,2302.11,2555.06,2283.24z M2767.82,2140.99
				c-12.52-1.06-29.77-2.79-48.75-4.71c-38.92-3.92-87.35-8.81-114.34-9.57c-13.87-0.57-26.88,7.96-30.3,19.87
				c-7.72,26.88-7.86,79.92-7.29,136.54c0.13,12.36,11.69,22.49,25.84,22.71c0.1,0,0.2,0,0.29,0l148.05,0.88
				c15.19,0.09,27.84-9.75,29.43-22.89l14.95-124c0.49-4.09-0.76-8.21-3.51-11.59C2778.83,2144.11,2773.59,2141.47,2767.82,2140.99
				L2767.82,2140.99z"/>
			<path class="st9" d="M2751.72,2153.21c-31.06-2.61-98.55-10.52-130.6-11.42c-13.58-0.38-25.62,7.64-28.99,19.37
				c-6.54,22.78-6.43,68.39-6.01,110.49c0.13,12.61,11.54,22.85,25.68,22.94l118.31,0.7c14.55,0.09,26.78-9.64,28.34-22.54
				l11.94-99.09C2771.63,2163.4,2763.24,2154.17,2751.72,2153.21z"/>
			<g class="st8">
				<path class="st2" d="M2464.16,2187.01c7.06-0.06,11.28,5.46,9.38,12.26l-13.72,48.94c-1.91,6.8-9.25,12.28-16.31,12.17
					l-743.99-11.58c-7.06-0.11-12.63-5.98-12.36-13.04l1.11-29.53c0.26-7.06,6.26-12.88,13.32-12.94L2464.16,2187.01z"/>
			</g>
			<path class="st2" d="M2564.17,2588.1c-0.57-57.54-0.41-111.54,7.76-139.99c5-17.41,22.78-29.01,42.25-28.61
				c27.44,0.77,76.14,5.68,115.27,9.63c18.88,1.9,36.04,3.64,48.5,4.68l0,0c9.02,0.77,17.31,5.01,22.72,11.66
				c4.84,5.95,7.03,13.29,6.14,20.67l-14.95,124c-2.32,19.24-20.16,33.66-41.49,33.52l-148.06-0.88c-0.13,0-0.26,0-0.39,0
				C2581.25,2622.46,2564.35,2606.98,2564.17,2588.1z M2776.93,2445.86c-12.52-1.06-29.74-2.79-48.7-4.7
				c-38.93-3.93-87.39-8.82-114.39-9.57c-13.87-0.42-26.88,7.96-30.3,19.86c-7.72,26.89-7.86,79.92-7.29,136.54
				c0.13,12.44,12.18,22.26,26.13,22.72l148.06,0.88c15.19,0.1,27.84-9.75,29.42-22.89l14.95-124c0.49-4.09-0.75-8.2-3.51-11.59
				C2787.94,2448.98,2782.7,2446.34,2776.93,2445.86L2776.93,2445.86z"/>
			<path class="st9" d="M2760.83,2458.07c-31.06-2.61-98.55-10.52-130.6-11.42c-13.58-0.38-25.62,7.64-28.99,19.37
				c-6.54,22.78-6.43,68.39-6.01,110.49c0.13,12.61,11.55,22.85,25.68,22.93l118.31,0.7c14.55,0.09,26.78-9.64,28.34-22.54
				l11.94-99.09C2780.74,2468.27,2772.35,2459.04,2760.83,2458.07z"/>
			<g class="st8">
				<path class="st2" d="M2473.27,2491.88c7.06-0.06,11.28,5.46,9.38,12.26l-13.72,48.93c-1.91,6.8-9.25,12.28-16.31,12.17
					l-743.99-11.58c-7.06-0.11-12.63-5.98-12.36-13.04l1.11-29.53c0.26-7.06,6.26-12.88,13.32-12.94L2473.27,2491.88z"/>
			</g>
			<g class="st8">
				<path class="st2" d="M2401.65,2805.06c7.06-0.08,11.43,5.46,9.7,12.31l-12.31,48.79c-1.73,6.85-8.92,12.36-15.99,12.25
					l-662.5-10.31c-7.06-0.11-12.64-5.98-12.39-13.04l1.04-29.53c0.25-7.06,6.23-12.9,13.29-12.98L2401.65,2805.06z"/>
			</g>
			<g class="st8">
				<path class="st2" d="M2765.33,2825.81c7.06-0.31,12.14,5.17,11.29,12.19l-4.49,37.11c-0.85,7.01-7.32,12.66-14.39,12.55
					l-234.96-3.66c-7.06-0.11-12.7-5.98-12.53-13.04l0.51-21.13c0.17-7.06,6.09-13.09,13.14-13.4L2765.33,2825.81z"/>
			</g>
		</g>
		
			<linearGradient id="SVGID_3_" gradientUnits="userSpaceOnUse" x1="2017.0319" y1="1907.3652" x2="1421.7732" y2="2690.4141" gradientTransform="matrix(0.8398 -0.543 0.543 0.8398 -465.0261 6.1533)">
			<stop  offset="0" style="stop-color:#09005D"/>
			<stop  offset="1" style="stop-color:#1A0F91"/>
		</linearGradient>
		<path class="st10" d="M2180.62,972.45l149.02-15.75l10.24-137.1c2.06-27.59-15.56-52.91-42.22-60.29
			c-29.23-8.09-70.55-8.05-117.5,25.8C2088.06,851.49,2180.62,972.45,2180.62,972.45z M2209.8,857.85
			c-0.35-20.55,16.04-37.49,36.59-37.84c20.55-0.35,37.49,16.04,37.84,36.59c0.34,20.55-16.03,37.49-36.59,37.84
			C2227.08,894.79,2210.14,878.4,2209.8,857.85z"/>
		<g>
			<path class="st3" d="M2313.15,903.13c-4.07-0.3-7.12-3.85-6.82-7.92l1.63-21.84c0.3-4.08,3.86-7.13,7.93-6.82
				c4.07,0.3,7.12,3.85,6.82,7.92l-1.63,21.84c-0.22,2.95-2.14,5.36-4.72,6.35C2315.36,903.05,2314.27,903.22,2313.15,903.13z
				 M2316.34,860.35c-4.07-0.3-7.12-3.85-6.82-7.92l1.24-16.58c1.57-21.07-11.97-40.42-32.21-46.02
				c-16.14-4.47-32.71-4.87-49.26-1.18c-3.99,0.89-7.94-1.63-8.82-5.61c-0.89-3.99,1.69-7.89,5.61-8.82
				c18.94-4.21,37.93-3.75,56.42,1.37c27.01,7.48,45.1,33.29,43,61.37l-1.24,16.58c-0.22,2.95-2.14,5.36-4.72,6.35
				C2318.56,860.26,2317.47,860.43,2316.34,860.35z"/>
		</g>
		
			<linearGradient id="SVGID_4_" gradientUnits="userSpaceOnUse" x1="-979.9722" y1="4130.2744" x2="-1585.0299" y2="4926.2139" gradientTransform="matrix(-0.9999 0.0168 0.0168 0.9999 915.3275 -3470.5969)">
			<stop  offset="0" style="stop-color:#09005D"/>
			<stop  offset="1" style="stop-color:#1A0F91"/>
		</linearGradient>
		<path class="st11" d="M2534.81,1041.74l-1.16-68.83c-0.4-23.76-20.41-42.46-44.14-41.24l-474.24,24.24
			c-21.05,1.07-37.82,17.99-38.73,39.04l-2.85,66.2L2534.81,1041.74z"/>
		<path class="st3" d="M2376.9,960.2c2.35-0.06,4.23-2.01,4.18-4.37c-0.04-2.37-1.99-4.26-4.37-4.22l-20.41,0.34
			c-2.47,0.07-4.27,2-4.22,4.37c0.04,2.37,1.99,4.26,4.37,4.22l20.41-0.34C2376.88,960.2,2376.89,960.2,2376.9,960.2z"/>
		<path class="st3" d="M2511.36,1023.86c2.81-1.08,4.78-3.83,4.73-7.02l-0.47-27.84c-0.19-11.43-4.82-22.1-13.04-30.05
			c-8.22-7.95-19.04-12.22-30.48-12.03l-75.02,1.27c-4.06,0.08-7.34,3.43-7.26,7.52c0.07,4.08,3.43,7.33,7.52,7.27l75.02-1.27
			c15.45-0.26,28.23,12.1,28.49,27.55l0.47,27.84c0.07,4.08,3.43,7.33,7.52,7.27C2509.72,1024.34,2510.57,1024.16,2511.36,1023.86z"
			/>
		
			<linearGradient id="SVGID_5_" gradientUnits="userSpaceOnUse" x1="-1056.2219" y1="4178.9648" x2="-1473.9984" y2="4946.0874" gradientTransform="matrix(-0.9999 0.0168 0.0168 0.9999 915.3275 -3470.5969)">
			<stop  offset="0" style="stop-color:#09005D"/>
			<stop  offset="1" style="stop-color:#1A0F91"/>
		</linearGradient>
		<path class="st12" d="M2683.07,1014.05l-829.78,13.93c-29.84,0.5-54.98,22.4-59.58,51.89l-0.63,4.07
			c-5.03,32.3,20.26,61.33,52.94,60.78l851.3-14.31c19.56-0.33,34.87-16.94,33.6-36.46l-2.47-38.07
			C2726.9,1032.06,2706.93,1013.65,2683.07,1014.05z"/>
		
			<linearGradient id="SVGID_6_" gradientUnits="userSpaceOnUse" x1="-1687.9474" y1="4453.7988" x2="-2352.5535" y2="5588.125" gradientTransform="matrix(-0.9905 -0.1382 -0.1382 0.9905 1393.6246 -3354.3196)">
			<stop  offset="0" style="stop-color:#FF928E"/>
			<stop  offset="1" style="stop-color:#FE7062"/>
		</linearGradient>
		<path class="st13" d="M2753.97,1877.82L2753.97,1877.82c-8.79-6.95-21.57-5.32-28.33,3.62l-31.79,42.03
			c-3.18,4.21-9.8,2.99-11.28-2.07l-43.48-149.21c-2.17-7.44-12.93-6.53-13.89,1.16c-5.35,43.04-5.34,126.27,53.74,204.18
			c0,0,39.87-9.42,79.65-72.05C2764.36,1896.43,2762.38,1884.46,2753.97,1877.82z"/>
		
			<linearGradient id="SVGID_7_" gradientUnits="userSpaceOnUse" x1="-1627.5464" y1="4105.0806" x2="-2292.1523" y2="5239.4067" gradientTransform="matrix(-0.9905 -0.1382 -0.1382 0.9905 1393.6246 -3354.3196)">
			<stop  offset="0" style="stop-color:#FF928E"/>
			<stop  offset="1" style="stop-color:#FE7062"/>
		</linearGradient>
		<path class="st14" d="M2742.34,1524.06L2742.34,1524.06c-8.79-6.95-21.57-5.32-28.33,3.62l-31.79,42.03
			c-3.18,4.21-9.8,2.99-11.28-2.07l-43.48-149.21c-2.17-7.44-12.93-6.53-13.89,1.16c-5.35,43.04-5.34,126.27,53.74,204.18
			c0,0,39.87-9.42,79.65-72.05C2752.73,1542.67,2750.74,1530.71,2742.34,1524.06z"/>
		
			<linearGradient id="SVGID_8_" gradientUnits="userSpaceOnUse" x1="-1713.3531" y1="4758.8931" x2="-2377.9592" y2="5893.2192" gradientTransform="matrix(-0.9905 -0.1382 -0.1382 0.9905 1393.6246 -3354.3196)">
			<stop  offset="0" style="stop-color:#FF928E"/>
			<stop  offset="1" style="stop-color:#FE7062"/>
		</linearGradient>
		<path class="st15" d="M2736.97,2183.52L2736.97,2183.52c-8.79-6.95-21.57-5.32-28.33,3.62l-31.79,42.03
			c-3.18,4.21-9.8,2.99-11.28-2.07l-43.48-149.21c-2.17-7.44-12.93-6.53-13.89,1.16c-5.35,43.04-5.34,126.27,53.74,204.18
			c0,0,39.87-9.42,79.65-72.05C2747.36,2202.13,2745.38,2190.17,2736.97,2183.52z"/>
		
			<linearGradient id="SVGID_9_" gradientUnits="userSpaceOnUse" x1="-1766.5645" y1="5045.1338" x2="-2431.1704" y2="6179.4595" gradientTransform="matrix(-0.9905 -0.1382 -0.1382 0.9905 1393.6246 -3354.3196)">
			<stop  offset="0" style="stop-color:#FF928E"/>
			<stop  offset="1" style="stop-color:#FE7062"/>
		</linearGradient>
		<path class="st16" d="M2750.12,2474.4L2750.12,2474.4c-8.79-6.95-21.57-5.32-28.33,3.62l-31.79,42.03
			c-3.18,4.21-9.8,2.99-11.28-2.07l-43.48-149.21c-2.17-7.44-12.93-6.53-13.89,1.16c-5.35,43.04-5.34,126.27,53.74,204.18
			c0,0,39.87-9.42,79.65-72.05C2760.51,2493.01,2758.52,2481.05,2750.12,2474.4z"/>
	</g>
	<g>
		<g>
			<linearGradient id="SVGID_10_" gradientUnits="userSpaceOnUse" x1="3242.5085" y1="2115.6299" x2="2677.1538" y2="2398.3079">
				<stop  offset="0" style="stop-color:#FF928E"/>
				<stop  offset="1" style="stop-color:#FE7062"/>
			</linearGradient>
			<path class="st17" d="M2204.34,3220.8c63.03,1.2,114.78-49.57,114.78-112.62v-501.17c0-65.85-52.92-119.42-118.76-120.14
				c-197.61-2.15-605.17-2.26-938.64,25.84c-45.51,3.83-80.9,41.13-82.55,86.77L1148,3084.01
				c-2.32,64.09,48.35,117.63,112.47,118.85L2204.34,3220.8z"/>
			<path class="st2" d="M2204.67,2661.23c0.84,42.64-0.43,110.31-1.46,154.02c-0.54,22.74-20.51,40.08-43.1,37.43l-162.63-19.06
				c-21.66-2.54-36.93-22.51-33.69-44.08l19.96-133.17c2.83-18.91,19.07-32.89,38.19-32.89h144.12
				C2187.06,2623.49,2204.25,2640.24,2204.67,2661.23z"/>
			<path class="st18" d="M1779.67,2913.6l-135.66,14.63c-18.98,2.05-35.18-13.61-33.78-32.65l29.66-403.55
				c56.87-1.8,112.96-3.12,167.09-4.04v395.19C1806.97,2898.82,1795.2,2911.93,1779.67,2913.6z"/>
			<path class="st2" d="M1724.07,2843.66c-0.42,7.26-6.43,12.86-13.61,12.86c-0.27,0-0.53-0.01-0.8-0.03
				c-7.52-0.44-13.27-6.89-12.83-14.41l20.46-352.2c9.17-0.23,18.27-0.43,27.37-0.63L1724.07,2843.66z"/>
			<g>
				
					<linearGradient id="SVGID_11_" gradientUnits="userSpaceOnUse" x1="-514.4335" y1="2648.4282" x2="-805.5443" y2="3071.448" gradientTransform="matrix(-1 0 0 1 1563.5464 0)">
					<stop  offset="0" style="stop-color:#09005D"/>
					<stop  offset="1" style="stop-color:#1A0F91"/>
				</linearGradient>
				<path class="st19" d="M2129.46,2788.36c2.38,0,4.39-1.85,4.54-4.26l7.04-110.93c0.16-2.51-1.74-4.66-4.26-4.82
					c-2.64-0.2-4.66,1.75-4.82,4.26l-7.04,110.93c-0.16,2.5,1.74,4.66,4.26,4.82C2129.27,2788.36,2129.37,2788.36,2129.46,2788.36z"
					/>
				
					<linearGradient id="SVGID_12_" gradientUnits="userSpaceOnUse" x1="-503.966" y1="2655.6321" x2="-795.0768" y2="3078.6519" gradientTransform="matrix(-1 0 0 1 1563.5464 0)">
					<stop  offset="0" style="stop-color:#09005D"/>
					<stop  offset="1" style="stop-color:#1A0F91"/>
				</linearGradient>
				<path class="st20" d="M2114.98,2788.36c2.44,0,4.47-1.94,4.55-4.4l3.69-113.06c0.08-2.51-1.89-4.62-4.4-4.7
					c-2.9-0.14-4.61,1.89-4.7,4.4l-3.69,113.06c-0.08,2.51,1.89,4.62,4.4,4.7C2114.82,2788.36,2114.93,2788.36,2114.98,2788.36z"/>
				
					<linearGradient id="SVGID_13_" gradientUnits="userSpaceOnUse" x1="-491.3362" y1="2664.3235" x2="-782.4471" y2="3087.3433" gradientTransform="matrix(-1 0 0 1 1563.5464 0)">
					<stop  offset="0" style="stop-color:#09005D"/>
					<stop  offset="1" style="stop-color:#1A0F91"/>
				</linearGradient>
				<path class="st21" d="M2095.34,2788.35c-2.51-0.12-4.45-2.25-4.33-4.75c1.8-37.98,5.24-110.42,5.29-112.89
					c0.02-2.49,2.05-4.5,4.55-4.5c2.51,0,4.55,2.03,4.55,4.55c0,1.87-4.42,94.69-5.31,113.27c-0.12,2.44-2.12,4.34-4.54,4.34
					C2095.48,2788.36,2095.41,2788.36,2095.34,2788.35z M2096.22,2670.75h0.09H2096.22z"/>
				
					<linearGradient id="SVGID_14_" gradientUnits="userSpaceOnUse" x1="-469.4906" y1="2679.3572" x2="-760.6006" y2="3102.376" gradientTransform="matrix(-1 0 0 1 1563.5464 0)">
					<stop  offset="0" style="stop-color:#09005D"/>
					<stop  offset="1" style="stop-color:#1A0F91"/>
				</linearGradient>
				<path class="st22" d="M2065.23,2792.91c4.88,0,8.91-3.86,9.08-8.78c3.85-109.54,3.17-112.01,2.73-113.64
					c-1.32-4.86-6.36-7.71-11.17-6.39c-4.45,1.22-7.23,5.54-6.63,9.99c0.29,6.58-1.74,70.32-3.11,109.41
					c-0.18,5.02,3.75,9.24,8.77,9.41C2065.01,2792.91,2065.13,2792.91,2065.23,2792.91z"/>
				
					<linearGradient id="SVGID_15_" gradientUnits="userSpaceOnUse" x1="-455.0859" y1="2689.27" x2="-746.1966" y2="3112.2896" gradientTransform="matrix(-1 0 0 1 1563.5464 0)">
					<stop  offset="0" style="stop-color:#09005D"/>
					<stop  offset="1" style="stop-color:#1A0F91"/>
				</linearGradient>
				<path class="st23" d="M2045.52,2788.36c2.51,0,4.55-2.03,4.55-4.55v-110.93c0-2.51-2.03-4.55-4.55-4.55
					c-2.51,0-4.55,2.03-4.55,4.55v110.93C2040.97,2786.32,2043.01,2788.36,2045.52,2788.36z"/>
				
					<linearGradient id="SVGID_16_" gradientUnits="userSpaceOnUse" x1="-446.1435" y1="2695.4246" x2="-737.2522" y2="3118.4412" gradientTransform="matrix(-1 0 0 1 1563.5464 0)">
					<stop  offset="0" style="stop-color:#09005D"/>
					<stop  offset="1" style="stop-color:#1A0F91"/>
				</linearGradient>
				<path class="st24" d="M2029.6,2788.36c2.47,0,4.5-1.97,4.55-4.44c0.87-38.55,2.91-101.51,4.73-109.08
					c0.8-1.43,0.79-3.24-0.17-4.72c-1.38-2.11-4.19-2.68-6.3-1.31c-2.48,1.62-4.83,3.16-7.36,114.89c-0.05,2.51,1.94,4.59,4.44,4.66
					H2029.6z"/>
				
					<linearGradient id="SVGID_17_" gradientUnits="userSpaceOnUse" x1="-529.4122" y1="2638.1213" x2="-820.5215" y2="3061.1389" gradientTransform="matrix(-1 0 0 1 1563.5464 0)">
					<stop  offset="0" style="stop-color:#09005D"/>
					<stop  offset="1" style="stop-color:#1A0F91"/>
				</linearGradient>
				<path class="st25" d="M2153.93,2798.46c4.81,0,8.82-3.77,9.08-8.63l6.07-116.49c0.26-5.02-3.6-9.29-8.62-9.56
					c-4.76-0.34-9.29,3.6-9.56,8.62l-6.07,116.49c-0.26,5.02,3.6,9.29,8.62,9.56C2153.61,2798.46,2153.77,2798.46,2153.93,2798.46z"
					/>
			</g>
		</g>
		<g>
			<linearGradient id="SVGID_18_" gradientUnits="userSpaceOnUse" x1="2042.5382" y1="1855.5613" x2="1663.9545" y2="2542.061">
				<stop  offset="0" style="stop-color:#FF928E"/>
				<stop  offset="1" style="stop-color:#FE7062"/>
			</linearGradient>
			<path class="st26" d="M2231.84,2413.64v-351.96c0-46.24-37.16-83.87-83.4-84.37c-138.78-1.51-425-1.59-659.19,18.15
				c-31.96,2.69-56.82,28.89-57.97,60.94l-21.89,340.28c-1.63,45.01,33.96,82.61,78.99,83.47l662.86,12.6
				C2195.5,2493.57,2231.84,2457.92,2231.84,2413.64z"/>
			<path class="st2" d="M2151.46,2099.76c0.59,29.95-0.3,77.47-1.03,108.17c-0.38,15.97-14.4,28.14-30.27,26.28l-114.21-13.39
				c-15.21-1.78-25.93-15.81-23.66-30.96l14.02-93.52c1.99-13.28,13.4-23.1,26.82-23.1h101.21
				C2139.09,2073.25,2151.17,2085.02,2151.46,2099.76z"/>
			<path class="st18" d="M1853,2277l-95.27,10.28c-13.33,1.44-24.71-9.56-23.72-22.93l20.83-283.4
				c39.94-1.27,79.33-2.19,117.34-2.84v277.54C1872.17,2266.61,1863.9,2275.82,1853,2277z"/>
			<path class="st2" d="M1813.95,2227.88c-0.29,5.1-4.52,9.03-9.56,9.03c-0.19,0-0.38-0.01-0.56-0.02
				c-5.28-0.31-9.32-4.84-9.01-10.12l14.37-247.34c6.44-0.16,12.83-0.3,19.22-0.44L1813.95,2227.88z"/>
			<g>
				
					<linearGradient id="SVGID_19_" gradientUnits="userSpaceOnUse" x1="-498.9465" y1="2090.7712" x2="-703.386" y2="2387.8469" gradientTransform="matrix(-1 0 0 1 1563.5464 0)">
					<stop  offset="0" style="stop-color:#09005D"/>
					<stop  offset="1" style="stop-color:#1A0F91"/>
				</linearGradient>
				<path class="st27" d="M2098.64,2189.04c1.67,0,3.08-1.3,3.19-3l4.94-77.91c0.11-1.76-1.22-3.28-2.99-3.39
					c-1.85-0.14-3.27,1.23-3.39,2.99l-4.94,77.91c-0.11,1.76,1.22,3.28,2.99,3.39C2098.51,2189.04,2098.58,2189.04,2098.64,2189.04z
					"/>
				
					<linearGradient id="SVGID_20_" gradientUnits="userSpaceOnUse" x1="-491.5956" y1="2095.8301" x2="-696.0351" y2="2392.9058" gradientTransform="matrix(-1 0 0 1 1563.5464 0)">
					<stop  offset="0" style="stop-color:#09005D"/>
					<stop  offset="1" style="stop-color:#1A0F91"/>
				</linearGradient>
				<path class="st28" d="M2088.47,2189.04c1.72,0,3.14-1.36,3.19-3.09l2.59-79.4c0.06-1.77-1.33-3.24-3.09-3.3
					c-2.03-0.1-3.24,1.33-3.3,3.09l-2.59,79.4c-0.06,1.77,1.33,3.24,3.09,3.3C2088.37,2189.04,2088.44,2189.04,2088.47,2189.04z"/>
				
					<linearGradient id="SVGID_21_" gradientUnits="userSpaceOnUse" x1="-482.726" y1="2101.9338" x2="-687.166" y2="2399.01" gradientTransform="matrix(-1 0 0 1 1563.5464 0)">
					<stop  offset="0" style="stop-color:#09005D"/>
					<stop  offset="1" style="stop-color:#1A0F91"/>
				</linearGradient>
				<path class="st29" d="M2074.69,2189.03c-1.77-0.08-3.13-1.58-3.04-3.34c1.27-26.67,3.68-77.54,3.72-79.28
					c0.01-1.75,1.44-3.16,3.19-3.16c1.77,0,3.19,1.43,3.19,3.19c0,1.32-3.11,66.5-3.73,79.55c-0.08,1.72-1.49,3.04-3.19,3.04
					C2074.79,2189.04,2074.73,2189.04,2074.69,2189.03z M2075.3,2106.45h0.06H2075.3z"/>
				
					<linearGradient id="SVGID_22_" gradientUnits="userSpaceOnUse" x1="-467.3842" y1="2112.4917" x2="-671.8237" y2="2409.5674" gradientTransform="matrix(-1 0 0 1 1563.5464 0)">
					<stop  offset="0" style="stop-color:#09005D"/>
					<stop  offset="1" style="stop-color:#1A0F91"/>
				</linearGradient>
				<path class="st30" d="M2053.54,2192.23c3.43,0,6.26-2.71,6.38-6.16c2.7-76.93,2.23-78.66,1.92-79.81
					c-0.92-3.41-4.47-5.42-7.84-4.49c-3.13,0.85-5.08,3.89-4.65,7.01c0.21,4.62-1.22,49.38-2.18,76.83
					c-0.13,3.52,2.63,6.49,6.16,6.61C2053.39,2192.23,2053.47,2192.23,2053.54,2192.23z"/>
				
					<linearGradient id="SVGID_23_" gradientUnits="userSpaceOnUse" x1="-457.2683" y1="2119.4531" x2="-661.7081" y2="2416.5291" gradientTransform="matrix(-1 0 0 1 1563.5464 0)">
					<stop  offset="0" style="stop-color:#09005D"/>
					<stop  offset="1" style="stop-color:#1A0F91"/>
				</linearGradient>
				<path class="st31" d="M2039.7,2189.04c1.77,0,3.19-1.43,3.19-3.19v-77.91c0-1.77-1.43-3.19-3.19-3.19
					c-1.77,0-3.19,1.43-3.19,3.19v77.91C2036.5,2187.61,2037.93,2189.04,2039.7,2189.04z"/>
				
					<linearGradient id="SVGID_24_" gradientUnits="userSpaceOnUse" x1="-450.9882" y1="2123.7754" x2="-655.4269" y2="2420.8499" gradientTransform="matrix(-1 0 0 1 1563.5464 0)">
					<stop  offset="0" style="stop-color:#09005D"/>
					<stop  offset="1" style="stop-color:#1A0F91"/>
				</linearGradient>
				<path class="st32" d="M2028.52,2189.04c1.73,0,3.16-1.38,3.19-3.12c0.61-27.07,2.04-71.29,3.32-76.6c0.56-1,0.56-2.28-0.12-3.31
					c-0.97-1.48-2.94-1.88-4.42-0.92c-1.74,1.14-3.39,2.22-5.17,80.68c-0.04,1.77,1.36,3.23,3.12,3.27H2028.52z"/>
				
					<linearGradient id="SVGID_25_" gradientUnits="userSpaceOnUse" x1="-509.4657" y1="2083.5325" x2="-713.9053" y2="2380.6084" gradientTransform="matrix(-1 0 0 1 1563.5464 0)">
					<stop  offset="0" style="stop-color:#09005D"/>
					<stop  offset="1" style="stop-color:#1A0F91"/>
				</linearGradient>
				<path class="st33" d="M2115.83,2196.13c3.38,0,6.2-2.65,6.38-6.06l4.26-81.81c0.18-3.53-2.53-6.53-6.05-6.71
					c-3.34-0.24-6.53,2.53-6.71,6.05l-4.26,81.81c-0.18,3.53,2.53,6.53,6.05,6.71C2115.61,2196.13,2115.72,2196.13,2115.83,2196.13z
					"/>
			</g>
		</g>
		<g>
			<linearGradient id="SVGID_26_" gradientUnits="userSpaceOnUse" x1="1716.8402" y1="2652.6011" x2="1095.9613" y2="3248.2417">
				<stop  offset="0" style="stop-color:#FF928E"/>
				<stop  offset="1" style="stop-color:#FE7062"/>
			</linearGradient>
			<path class="st34" d="M1735.58,3140.33v-351.96c0-46.24-32.12-83.87-72.08-84.37c-119.93-1.51-367.29-1.59-569.69,18.15
				c-27.62,2.69-49.1,28.89-50.1,60.94l-18.92,340.28c-1.41,45.01,29.35,82.61,68.26,83.47l572.86,12.6
				C1704.18,3220.26,1735.58,3184.61,1735.58,3140.33z"/>
			<path class="st2" d="M1666.12,2826.45c0.51,29.95-0.26,77.47-0.89,108.17c-0.33,15.97-12.45,28.14-26.16,26.28l-98.7-13.39
				c-13.15-1.78-22.41-15.81-20.45-30.96l12.12-93.52c1.72-13.28,11.58-23.1,23.18-23.1h87.47
				C1655.43,2799.94,1665.86,2811.71,1666.12,2826.45z"/>
			<path class="st18" d="M1408.17,3003.68l-82.34,10.28c-11.52,1.44-21.35-9.56-20.5-22.93l18-283.4
				c34.51-1.27,68.56-2.19,101.41-2.84v277.53C1424.75,2993.3,1417.6,3002.51,1408.17,3003.68z"/>
			<path class="st2" d="M1374.43,2954.56c-0.25,5.1-3.9,9.03-8.26,9.03c-0.16,0-0.32-0.01-0.49-0.02
				c-4.57-0.31-8.06-4.83-7.79-10.12l12.42-247.34c5.57-0.16,11.09-0.3,16.61-0.44L1374.43,2954.56z"/>
			<g>
				
					<linearGradient id="SVGID_27_" gradientUnits="userSpaceOnUse" x1="-20.3731" y1="2817.3655" x2="-225.1543" y2="3114.9375" gradientTransform="matrix(-1 0 0 1 1563.5464 0)">
					<stop  offset="0" style="stop-color:#09005D"/>
					<stop  offset="1" style="stop-color:#1A0F91"/>
				</linearGradient>
				<path class="st35" d="M1620.47,2915.73c1.45,0,2.66-1.3,2.76-2.99l4.27-77.91c0.1-1.76-1.06-3.28-2.58-3.39
					c-1.6-0.14-2.83,1.23-2.93,2.99l-4.27,77.91c-0.1,1.76,1.06,3.28,2.58,3.39C1620.36,2915.73,1620.42,2915.73,1620.47,2915.73z"
					/>
				
					<linearGradient id="SVGID_28_" gradientUnits="userSpaceOnUse" x1="-14.6645" y1="2822.5723" x2="-218.8922" y2="3119.3401" gradientTransform="matrix(-1 0 0 1 1563.5464 0)">
					<stop  offset="0" style="stop-color:#09005D"/>
					<stop  offset="1" style="stop-color:#1A0F91"/>
				</linearGradient>
				<path class="st36" d="M1611.68,2915.73c1.48,0,2.71-1.36,2.76-3.09l2.24-79.4c0.05-1.77-1.15-3.24-2.67-3.3
					c-1.76-0.1-2.8,1.33-2.85,3.09l-2.24,79.4c-0.05,1.77,1.15,3.24,2.67,3.3C1611.59,2915.73,1611.65,2915.73,1611.68,2915.73z"/>
				
					<linearGradient id="SVGID_29_" gradientUnits="userSpaceOnUse" x1="-7.5222" y1="2828.6072" x2="-212.0257" y2="3125.7761" gradientTransform="matrix(-1 0 0 1 1563.5464 0)">
					<stop  offset="0" style="stop-color:#09005D"/>
					<stop  offset="1" style="stop-color:#1A0F91"/>
				</linearGradient>
				<path class="st37" d="M1599.76,2915.72c-1.53-0.08-2.7-1.58-2.63-3.34c1.09-26.67,3.18-77.54,3.21-79.28
					c0.01-1.75,1.25-3.16,2.76-3.16c1.53,0,2.76,1.43,2.76,3.19c0,1.32-2.69,66.5-3.22,79.55c-0.07,1.72-1.29,3.04-2.76,3.04
					C1599.85,2915.73,1599.81,2915.73,1599.76,2915.72z M1600.3,2833.13h0.05H1600.3z"/>
				
					<linearGradient id="SVGID_30_" gradientUnits="userSpaceOnUse" x1="4.6958" y1="2839.3455" x2="-198.7553" y2="3134.9849" gradientTransform="matrix(-1 0 0 1 1563.5464 0)">
					<stop  offset="0" style="stop-color:#09005D"/>
					<stop  offset="1" style="stop-color:#1A0F91"/>
				</linearGradient>
				<path class="st38" d="M1581.49,2918.92c2.96,0,5.41-2.71,5.51-6.16c2.33-76.93,1.92-78.66,1.65-79.81
					c-0.8-3.41-3.86-5.42-6.78-4.49c-2.7,0.85-4.39,3.89-4.02,7.01c0.18,4.62-1.06,49.38-1.89,76.83c-0.11,3.52,2.28,6.49,5.32,6.61
					C1581.36,2918.92,1581.43,2918.92,1581.49,2918.92z"/>
				
					<linearGradient id="SVGID_31_" gradientUnits="userSpaceOnUse" x1="12.8313" y1="2846.2434" x2="-190.84" y2="3142.2029" gradientTransform="matrix(-1 0 0 1 1563.5464 0)">
					<stop  offset="0" style="stop-color:#09005D"/>
					<stop  offset="1" style="stop-color:#1A0F91"/>
				</linearGradient>
				<path class="st39" d="M1569.53,2915.73c1.53,0,2.76-1.43,2.76-3.19v-77.91c0-1.77-1.23-3.19-2.76-3.19
					c-1.53,0-2.76,1.43-2.76,3.19v77.91C1566.77,2914.3,1568,2915.73,1569.53,2915.73z"/>
				
					<linearGradient id="SVGID_32_" gradientUnits="userSpaceOnUse" x1="17.9209" y1="2850.4568" x2="-186.5753" y2="3147.6147" gradientTransform="matrix(-1 0 0 1 1563.5464 0)">
					<stop  offset="0" style="stop-color:#09005D"/>
					<stop  offset="1" style="stop-color:#1A0F91"/>
				</linearGradient>
				<path class="st40" d="M1559.86,2915.73c1.5,0,2.73-1.38,2.76-3.12c0.53-27.07,1.76-71.29,2.87-76.6c0.49-1,0.48-2.28-0.1-3.31
					c-0.84-1.48-2.54-1.88-3.82-0.92c-1.5,1.14-2.93,2.22-4.46,80.68c-0.03,1.77,1.18,3.23,2.7,3.27H1559.86z"/>
				
					<linearGradient id="SVGID_33_" gradientUnits="userSpaceOnUse" x1="-28.7818" y1="2810.3828" x2="-232.7043" y2="3106.7073" gradientTransform="matrix(-1 0 0 1 1563.5464 0)">
					<stop  offset="0" style="stop-color:#09005D"/>
					<stop  offset="1" style="stop-color:#1A0F91"/>
				</linearGradient>
				<path class="st41" d="M1635.32,2922.82c2.92,0,5.35-2.65,5.51-6.06l3.68-81.81c0.16-3.53-2.18-6.53-5.23-6.71
					c-2.89-0.24-5.64,2.53-5.8,6.05l-3.68,81.81c-0.16,3.53,2.18,6.53,5.23,6.71C1635.13,2922.82,1635.23,2922.82,1635.32,2922.82z"
					/>
			</g>
		</g>
	</g>
	<g>
		<g>
			
				<linearGradient id="SVGID_34_" gradientUnits="userSpaceOnUse" x1="797.3528" y1="1035.3499" x2="-420.5428" y2="2593.5405" gradientTransform="matrix(1 0 0 1 1074.0826 0)">
				<stop  offset="0" style="stop-color:#FEBBBA"/>
				<stop  offset="1" style="stop-color:#FF928E"/>
			</linearGradient>
			<path class="st42" d="M1767.86,1636.13l-49.53,26.66c-59.41,36.17-112.57,55.28-160.4,62.46
				c-149.37,22.41-246.73-71.84-319.27-129.01c-95.78-75.48-170.31-38.76-170.31-38.76l102.14,194.94
				c152.54,143.82,308.94,111.88,407.54,65.28c62.77-29.67,102.12-65.28,102.12-65.28
				C1792.34,1685.51,1767.86,1636.13,1767.86,1636.13z"/>
			
				<linearGradient id="SVGID_35_" gradientUnits="userSpaceOnUse" x1="937.3423" y1="1442.5269" x2="251.3835" y2="2320.1509" gradientTransform="matrix(1 0 0 1 1074.0826 0)">
				<stop  offset="0" style="stop-color:#FEBBBA"/>
				<stop  offset="1" style="stop-color:#FF928E"/>
			</linearGradient>
			<path class="st43" d="M1913.79,1705.94c-3.2-10.63-11.06-19.23-21.36-23.37l-100.53-40.43c0,0-1.52-12.89,21.24-21.65
				c22.76-8.76,17.44-34.25,17.44-34.25s-31.09,14.18-76.61,36.68c-26.03,12.86-40.64,35.58-48.38,52.68l25.88,34.03
				c61.96,18.61,124.65,22.17,187.88,14.79L1913.79,1705.94z"/>
		</g>
		
			<linearGradient id="SVGID_36_" gradientUnits="userSpaceOnUse" x1="863.0016" y1="3034.6804" x2="908.0162" y2="3253.6152" gradientTransform="matrix(-1 0 0 1 2064.6489 0)">
			<stop  offset="0" style="stop-color:#4F52FF"/>
			<stop  offset="1" style="stop-color:#4042E2"/>
		</linearGradient>
		<path class="st44" d="M1046.38,3126.74c0,0-7.65,43.32-11.4,86.2c-1.47,16.76,11.45,31.31,28.26,32.01
			c57.11,2.38,179.26,7,223.1,5.05c6.59-0.29,10.9-7.04,8.46-13.17l0,0c-2.04-5.14-5.98-9.29-11.01-11.59l-201.78-92.74
			L1046.38,3126.74z"/>
		
			<linearGradient id="SVGID_37_" gradientUnits="userSpaceOnUse" x1="2991.8396" y1="3126.5635" x2="3057.4722" y2="3126.5635" gradientTransform="matrix(1 0 0 1 -1951.7264 0)">
			<stop  offset="0" style="stop-color:#FEBBBA"/>
			<stop  offset="1" style="stop-color:#FF928E"/>
		</linearGradient>
		<path class="st45" d="M1040.11,3101.29l6.15,51.82c0,0,35.35,16.45,59.48-2.07l-14.64-57.75L1040.11,3101.29z"/>
		
			<linearGradient id="SVGID_38_" gradientUnits="userSpaceOnUse" x1="2690.4026" y1="1382.2039" x2="3017.8706" y2="2805.5532" gradientTransform="matrix(1 0 0 1 -1951.7264 0)">
			<stop  offset="0" style="stop-color:#09005D"/>
			<stop  offset="1" style="stop-color:#1A0F91"/>
		</linearGradient>
		<path class="st46" d="M1030.24,2092.94c-2.66,14.03,4.76,734.9,75.5,1042.37c1.15,5.02,8.47,14.86,5.95,19.18
			c-6.14,10.5-51.34,7.55-76.83,8.44c-7.89,0.28-12.13-8.99-14.36-16.85c-20.22-71.34-117.11-428.76-129.75-770.19
			c-14.12-381.52,0-12.99,0-12.99l-6.28-241.71L1030.24,2092.94z"/>
		
			<linearGradient id="SVGID_39_" gradientUnits="userSpaceOnUse" x1="1223.8577" y1="3046.0837" x2="1221.8115" y2="3262.9731" gradientTransform="matrix(-1 0 0 1 2064.6489 0)">
			<stop  offset="0" style="stop-color:#4F52FF"/>
			<stop  offset="1" style="stop-color:#4042E2"/>
		</linearGradient>
		<path class="st47" d="M814.27,3149.34c0,0-12.18,21.87-23.97,79.98c-2.13,10.49,5.2,20.54,15.86,21.59
			c18.86,1.85,47.89,4.24,71.14,4.08c10.72-0.07,19.09-9.41,17.79-20.05c-2.58-21.21-10.6-56.01-35.39-83.14L814.27,3149.34z"/>
		
			<linearGradient id="SVGID_40_" gradientUnits="userSpaceOnUse" x1="2755.2964" y1="3123.1975" x2="2811.9653" y2="3123.1975" gradientTransform="matrix(1 0 0 1 -1951.7264 0)">
			<stop  offset="0" style="stop-color:#FEBBBA"/>
			<stop  offset="1" style="stop-color:#FF928E"/>
		</linearGradient>
		<path class="st48" d="M803.57,3082.69l14.37,78.36c0,0,14.2,10.57,42.3,2.91l-6.86-84.31L803.57,3082.69z"/>
		
			<linearGradient id="SVGID_41_" gradientUnits="userSpaceOnUse" x1="2581.5051" y1="1381.9048" x2="2913.1902" y2="2823.5833" gradientTransform="matrix(1 0 0 1 -1951.7264 0)">
			<stop  offset="0" style="stop-color:#09005D"/>
			<stop  offset="1" style="stop-color:#1A0F91"/>
		</linearGradient>
		<path class="st49" d="M769.04,2121.05c-57.85,364.43,8.27,928.69,32.01,1033.65c1.45,6.43,6.42,11.35,12.66,12.43
			c10.6,1.83,28.05,3.33,45.25-1.88c5.93-1.8,10.09-7.38,10.33-13.81c3.19-84.86-2.55-605.83,51.36-811.72
			c2.73-10.43,8.84-19.53,17.28-25.8l88.71-72.3l1.65-155.89L769.04,2121.05z"/>
		
			<linearGradient id="SVGID_42_" gradientUnits="userSpaceOnUse" x1="722.1152" y1="2622.3594" x2="1469.0103" y2="3335.739" gradientTransform="matrix(1 0 0 1 1074.0826 0)">
			<stop  offset="0" style="stop-color:#09005D"/>
			<stop  offset="1" style="stop-color:#1A0F91"/>
		</linearGradient>
		<path class="st50" d="M1100.52,1536.39c-152.47-2.52-320.71,40.04-320.71,40.04c-37.46,218.6-22.42,460.87-14.62,540.65
			c1.6,16.36-7.15,33.67,9.07,36.29c79.78,12.89,205.18-0.23,244.14-11.55c14.24-4.14,11.82-19.3,14.85-33.82
			c26.16-125.48,100.97-402.22,100.97-402.22c36.27,46.65,87.43,111.93,163.08,129.3c-38.55-44.69,35.39-138.4,27.5-172.01
			C1256.4,1586.23,1147.54,1537.17,1100.52,1536.39z"/>
		
			<linearGradient id="SVGID_43_" gradientUnits="userSpaceOnUse" x1="2849.0024" y1="1492.1783" x2="2996.5481" y2="1492.1783" gradientTransform="matrix(1 0 0 1 -1951.7264 0)">
			<stop  offset="0" style="stop-color:#FEBBBA"/>
			<stop  offset="1" style="stop-color:#FF928E"/>
		</linearGradient>
		<path class="st51" d="M946.07,1412.6l-48.51,140.3c-0.8,2.32,0.15,4.9,2.3,6.09c13.22,7.31,60.87,28.45,118.29-7.96
			c5.98-3.79,10.05-9.98,10.96-17l15.71-121.43H946.07z"/>
		<g>
			
				<linearGradient id="SVGID_44_" gradientUnits="userSpaceOnUse" x1="-3028.7964" y1="247.4657" x2="-3083.9329" y2="65.6129" gradientTransform="matrix(0.746 -0.6659 0.6659 0.746 3174.6089 -803.1727)">
				<stop  offset="0" style="stop-color:#FEBBBA"/>
				<stop  offset="1" style="stop-color:#FF928E"/>
			</linearGradient>
			<path class="st52" d="M1051.63,1282.68c0,0,53.27,100.28,46.45,140.79c-6.83,40.51-72.85,37.6-130.51,4.7l-40.29-108.28
				L1051.63,1282.68z"/>
			
				<linearGradient id="SVGID_45_" gradientUnits="userSpaceOnUse" x1="-3091.4551" y1="-25.2623" x2="-3052.686" y2="195.8651" gradientTransform="matrix(0.746 -0.6659 0.6659 0.746 3174.6089 -803.1727)">
				<stop  offset="0" style="stop-color:#09005D"/>
				<stop  offset="1" style="stop-color:#1A0F91"/>
			</linearGradient>
			<path class="st53" d="M970.12,1375c2.34-1.04,3.21-3.91,1.8-6.05c-4.27-6.52-12.27-19.82-14.82-31.47c0,0-9.58-6.13,24.38-14.26
				c18.49-4.43,51.26-8.09,65.67-21.38c16.12-14.87-13.6-42.98-26.1-50.52c-16.49-9.96-36.57-15.85-55.17-10.83
				c-8.98,2.42-17.1,7.22-25.09,11.96c-13.62,8.08-27.71,16.6-36.37,29.86c-5.61,8.58-8.54,18.59-11.23,28.48
				c-3.86,14.21-7.4,28.76-6.73,43.47c1.79,39.19,47.72,74.3,84.65,78.59c3.02,0.35,5.36-2.63,4.37-5.51l-15.1-43.89
				c-0.7-2.04,0.27-4.27,2.24-5.15L970.12,1375z"/>
			
				<linearGradient id="SVGID_46_" gradientUnits="userSpaceOnUse" x1="-3085.1592" y1="246.6187" x2="-3134.7661" y2="83.0036" gradientTransform="matrix(0.746 -0.6659 0.6659 0.746 3174.6089 -803.1727)">
				<stop  offset="0" style="stop-color:#FEBBBA"/>
				<stop  offset="1" style="stop-color:#FF928E"/>
			</linearGradient>
			<path class="st54" d="M976.19,1381.23c0,0-37.93-26.02-40.7-4.11c-2.77,21.92,34.16,31.74,52.45,23.57L976.19,1381.23z"/>
		</g>
		<g>
			
				<linearGradient id="SVGID_47_" gradientUnits="userSpaceOnUse" x1="-4112.8486" y1="8550.627" x2="-4393.7446" y2="8793.2197" gradientTransform="matrix(-1 0 0 1 5253.0562 0)">
				<stop  offset="0" style="stop-color:#09005D"/>
				<stop  offset="1" style="stop-color:#1A0F91"/>
			</linearGradient>
			<path class="st55" d="M1071.04,1258.08c-77.83-147.01-279.55-13.46-185.67,110.38
				C955.17,1322.06,1034.04,1253.06,1071.04,1258.08z"/>
		</g>
		
			<linearGradient id="SVGID_48_" gradientUnits="userSpaceOnUse" x1="832.7336" y1="1225.594" x2="551.8375" y2="1468.1863" gradientTransform="matrix(1 0 0 1 293.427 0)">
			<stop  offset="0" style="stop-color:#09005D"/>
			<stop  offset="1" style="stop-color:#1A0F91"/>
		</linearGradient>
		<path class="st56" d="M949.48,1320.36l139.76-4.32c3.55-0.11,6.79-2.07,8.51-5.18c12.52-22.61,30.84-37.01,53.75-44.92
			c2.9-1,2.3-5.27-0.76-5.48l-85.68-5.83c-0.1-0.01-0.19-0.01-0.29,0c-42.7,3.28-80.5,28.97-116.56,62.63
			C947,1318.38,947.83,1320.41,949.48,1320.36z"/>
		
			<linearGradient id="SVGID_49_" gradientUnits="userSpaceOnUse" x1="655.5065" y1="2692.0986" x2="1402.3994" y2="3405.4758" gradientTransform="matrix(1 0 0 1 1074.0826 0)">
			<stop  offset="0" style="stop-color:#09005D"/>
			<stop  offset="1" style="stop-color:#1A0F91"/>
		</linearGradient>
		<path class="st57" d="M797.07,1798.96c85.34-95.81,76.69-169.56-19.63-222.65c0,0-159.66,108.48-185.91,246.02
			c30.17,2.22,85.06,10.07,138.79,37.2C742.14,1794.58,797.07,1798.96,797.07,1798.96z"/>
		
			<linearGradient id="SVGID_50_" gradientUnits="userSpaceOnUse" x1="4612.7295" y1="1929.109" x2="5031.0845" y2="1929.109" gradientTransform="matrix(1 0 0 1 -4024.8325 0)">
			<stop  offset="0" style="stop-color:#FEBBBA"/>
			<stop  offset="1" style="stop-color:#FF928E"/>
		</linearGradient>
		<path class="st58" d="M982.53,1897.55c0,0-179.25,101.3-239.74,14.8c-12.56-17.96-15.56-35.81-12.47-52.83
			c-53.73-27.13-108.62-34.98-138.79-37.2c-7.92,41.46-3.73,85.56,20.63,130.13c105.94,193.8,394.08-10.71,394.08-10.71
			L982.53,1897.55z"/>
		<g>
			<linearGradient id="SVGID_51_" gradientUnits="userSpaceOnUse" x1="1753.7307" y1="1310.3853" x2="1450.8617" y2="1577.9192">
				<stop  offset="0" style="stop-color:#FF928E"/>
				<stop  offset="1" style="stop-color:#FE7062"/>
			</linearGradient>
			<path class="st59" d="M960.99,2025.71l97.83-341.64c1.11-3.88,4.42-6.71,8.43-7.17c17.72-2.07,69.09-7.87,128.39-12.89
				c71.43-6.04,154.38-10.94,203.95-6.77c7.05,0.59,11.31,8.05,8.17,14.39c-28.19,57.03-144.13,289-202.2,364.99
				c-1.92,2.52-4.9,3.99-8.07,3.96l-226.98-2.11C963.9,2038.4,959.17,2032.06,960.99,2025.71z"/>
			
				<linearGradient id="SVGID_52_" gradientUnits="userSpaceOnUse" x1="5256.2969" y1="1679.8682" x2="5207.3047" y2="1895.0061" gradientTransform="matrix(1 0 0 1 -4024.8325 0)">
				<stop  offset="0" style="stop-color:#FF928E"/>
				<stop  offset="1" style="stop-color:#FE7062"/>
			</linearGradient>
			<path class="st60" d="M1205.78,1634.38l70.93-11.82c3.78-0.63,6.87,2.98,5.67,6.62l-7.02,21.28c-0.61,1.85-2.23,3.19-4.16,3.45
				l-68.25,9.12c-3.53,0.47-6.44-2.74-5.63-6.21l4.35-18.58C1202.13,1636.24,1203.75,1634.72,1205.78,1634.38z"/>
			
				<linearGradient id="SVGID_53_" gradientUnits="userSpaceOnUse" x1="5243.8438" y1="1763.9955" x2="5220.4131" y2="1904.5813" gradientTransform="matrix(1 0 0 1 -4024.8325 0)">
				<stop  offset="0" style="stop-color:#FF928E"/>
				<stop  offset="1" style="stop-color:#FE7062"/>
			</linearGradient>
			<path class="st61" d="M1152.67,1694.43l5.84-30.44c0.59-3.05,3.11-5.36,6.2-5.67l143.26-14.54c4.82-0.49,8.68,3.93,7.55,8.64
				l-9.11,37.93c-0.73,3.03-3.37,5.23-6.49,5.38l-139.99,7.05C1155.38,1703.01,1151.81,1698.91,1152.67,1694.43z"/>
			
				<linearGradient id="SVGID_54_" gradientUnits="userSpaceOnUse" x1="5000.0234" y1="1885.2449" x2="5130.3589" y2="1885.2449" gradientTransform="matrix(1 0 0 1 -4024.8325 0)">
				<stop  offset="0" style="stop-color:#FEBBBA"/>
				<stop  offset="1" style="stop-color:#FF928E"/>
			</linearGradient>
			<path class="st62" d="M984.63,1943.17c0,0-13.63-56.04-8.13-75.92c5.5-19.88,16.15-45.44,51.65-39.76
				c35.5,5.68,77.38,20.63,77.38,20.63s-2.12,25.9-29.1,17.54l16.73,12.95c0,0-2.39,20.73-25.18,9.66l15.56,17.17
				c0,0-9.79,17.03-26.56,6.11C1040.22,1900.62,1032.18,1949.92,984.63,1943.17z"/>
		</g>
		<g>
			
				<linearGradient id="SVGID_55_" gradientUnits="userSpaceOnUse" x1="-298.0407" y1="1467.6111" x2="-329.9608" y2="1955.9889" gradientTransform="matrix(-1 0 0 1 558.3939 0)">
				<stop  offset="0" style="stop-color:#09005D"/>
				<stop  offset="1" style="stop-color:#1A0F91"/>
			</linearGradient>
			<path class="st63" d="M927.82,1729.85c-11.19,0.9-105.83,3.93-105.83,3.93l3.82,95.28l49.03,27.65l52.98-27.65V1729.85z"/>
			
				<linearGradient id="SVGID_56_" gradientUnits="userSpaceOnUse" x1="-97.1155" y1="1442.1051" x2="-307.788" y2="1735.7701" gradientTransform="matrix(-1 0 0 1 558.3939 0)">
				<stop  offset="0" style="stop-color:#09005D"/>
				<stop  offset="1" style="stop-color:#1A0F91"/>
			</linearGradient>
			<polygon class="st64" points="935.34,1729.85 822.2,1733.78 817.58,1770.34 876.46,1785.63 939.04,1757.74 			"/>
		</g>
	</g>
</g>
<g>
</g>
<g>
</g>
<g>
</g>
<g>
</g>
<g>
</g>
<g>
</g>
<g>
</g>
<g>
</g>
<g>
</g>
<g>
</g>
<g>
</g>
<g>
</g>
<g>
</g>
<g>
</g>
<g>
</g>
</svg>
